<?xml version="1.0" encoding="UTF-8" standalone="no"?>
<!-- Created with Inkscape (http://www.inkscape.org/) -->

<svg
   version="1.1"
   id="svg1"
   width="1489.4545"
   height="1489.4545"
   viewBox="0 0 1489.4545 1489.4545"
   xmlns="http://www.w3.org/2000/svg"
   xmlns:svg="http://www.w3.org/2000/svg">
  <defs
     id="defs1" />
  <g
     id="g1">
    <path
       style="fill:#008000"
       d="m 1294.5454,974.90904 c -0.498,-0.6 -1.3605,-1.09091 -1.9167,-1.09091 -0.5562,0 -1.7268,-1.47273 -2.6013,-3.27273 -0.8745,-1.8 -1.8261,-3.27272 -2.1146,-3.27272 -0.2885,0 -0.752,-1.06364 -1.03,-2.36364 -0.2779,-1.3 -0.8258,-2.76171 -1.2174,-3.24824 -0.4188,-0.52033 -0.5026,-2.61675 -0.2034,-5.09091 1.3314,-11.01011 0.032,-68.31588 -1.6368,-72.2063 -0.2575,-0.6 -0.8773,-5.01818 -1.3774,-9.81818 -0.9924,-9.52473 -2.7913,-23.14756 -3.8896,-29.45454 -0.8869,-5.09294 -2.628,-16.04155 -3.8167,-24 -0.5079,-3.4 -1.1355,-6.50909 -1.3948,-6.90909 -0.2593,-0.4 -0.7082,-3.01819 -0.9974,-5.81819 -0.2893,-2.8 -0.7814,-5.41818 -1.0934,-5.81818 -0.3121,-0.4 -0.8019,-2.94091 -1.0884,-5.64647 -0.2866,-2.70556 -0.784,-5.08173 -1.1054,-5.28038 -0.3214,-0.19865 -0.8118,-2.48501 -1.0898,-5.0808 -0.278,-2.59579 -0.7625,-4.71962 -1.0766,-4.71962 -0.3141,0 -0.7991,-1.96422 -1.0777,-4.36494 -0.2787,-2.40072 -0.7635,-4.52367 -1.0774,-4.71766 -0.3138,-0.194 -0.7955,-2.15189 -1.0702,-4.35087 -0.2747,-2.19898 -0.7657,-4.16262 -1.0909,-4.36363 -0.3253,-0.20102 -0.8162,-2.16466 -1.0909,-4.36364 -0.2748,-2.19898 -0.7733,-4.16731 -1.1078,-4.37406 -0.3345,-0.20675 -0.8332,-2.01155 -1.1081,-4.01065 -0.275,-1.99911 -0.7966,-3.81806 -1.1591,-4.04211 -0.3625,-0.22405 -0.6591,-1.18692 -0.6591,-2.13971 0,-0.95279 -0.2988,-1.917 -0.664,-2.14271 -0.3652,-0.2257 -0.8846,-1.71603 -1.1542,-3.31183 -0.2696,-1.59581 -0.789,-3.08614 -1.1542,-3.31184 -0.3652,-0.22571 -0.664,-0.99049 -0.664,-1.69952 0,-1.57154 -2.6584,-10.48906 -4.0674,-13.64401 -0.5629,-1.26045 -1.0235,-2.79568 -1.0235,-3.41162 0,-0.61595 -0.2902,-1.29923 -0.6448,-1.51842 -0.3547,-0.21919 -0.868,-1.58789 -1.1407,-3.04155 -0.2727,-1.45366 -0.7525,-3.17546 -1.0663,-3.82621 -2.0242,-4.19807 -2.9739,-6.52087 -3.3855,-8.28098 -0.2581,-1.10378 -0.7603,-2.18673 -1.116,-2.40655 -0.3557,-0.21983 -0.6467,-0.90364 -0.6467,-1.51958 0,-0.61595 -0.5263,-2.31481 -1.1696,-3.77526 -0.6432,-1.46046 -1.5919,-3.63719 -2.1082,-4.83719 -0.5163,-1.2 -1.79,-3.98651 -2.8304,-6.19226 -1.0405,-2.20574 -1.8918,-4.32764 -1.8918,-4.71534 0,-1.18227 -17.5449,-36.20489 -19.3772,-38.68024 -0.9425,-1.27331 -1.7137,-2.52202 -1.7137,-2.7749 0,-0.57536 -6.5816,-11.74449 -10.0716,-17.0918 -4.0418,-6.1928 -4.4186,-6.82062 -4.9107,-8.18182 -0.253,-0.7 -0.7594,-1.27273 -1.1253,-1.27273 -0.3659,0 -0.8838,-0.57272 -1.1507,-1.27272 -0.267,-0.7 -2.3022,-3.77538 -4.5227,-6.83416 -2.2204,-3.05879 -4.5281,-6.30136 -5.1281,-7.2057 -0.6,-0.90435 -1.9909,-2.69946 -3.0909,-3.98913 -1.1,-1.28967 -2,-2.59263 -2,-2.89546 0,-0.30283 -1.7456,-2.55054 -3.879,-4.9949 -2.1335,-2.44436 -4.179,-4.98134 -4.5455,-5.63773 -2.3393,-4.18925 -32.4336,-36.07269 -39.2852,-41.62079 -2.0404,-1.65217 -6.3369,-5.29486 -9.5478,-8.09486 -7.447,-6.49402 -15.2174,-12.72727 -15.8658,-12.72727 -0.2766,0 -1.558,-0.9 -2.8477,-2 -1.2897,-1.1 -3.0889,-2.49091 -3.9984,-3.09091 -0.9094,-0.6 -2.4036,-1.66363 -3.3204,-2.36363 -0.9168,-0.7 -1.9971,-1.27273 -2.4007,-1.27273 -0.4035,0 -0.8428,-0.24546 -0.9762,-0.54546 -0.368,-0.82802 -4.8064,-3.81818 -5.6675,-3.81818 -0.4162,0 -0.7567,-0.25285 -0.7567,-0.56189 0,-0.30903 -1.213,-1.20903 -2.6956,-1.99999 -1.4826,-0.79097 -4.8218,-2.82903 -7.4205,-4.52903 -2.5986,-1.7 -5.0365,-3.0909 -5.4175,-3.0909 -0.381,0 -1.7055,-0.7374 -2.9432,-1.63866 -1.9207,-1.3985 -22.6362,-11.90773 -26.9777,-13.68611 -2.8053,-1.14909 -8.7494,-3.69946 -11.019,-4.7278 -1.2605,-0.57109 -2.7957,-1.03834 -3.4117,-1.03834 -0.6159,0 -1.3221,-0.32728 -1.5693,-0.72728 -0.2473,-0.4 -1.0029,-0.73837 -1.6793,-0.75195 -0.6764,-0.0136 -2.5389,-0.65701 -4.1389,-1.42986 -1.6,-0.77286 -3.6455,-1.4163 -4.5455,-1.42987 -0.9,-0.0136 -1.6363,-0.28732 -1.6363,-0.60833 0,-0.32101 -1.5546,-0.94231 -3.4546,-1.38067 -1.9,-0.43837 -5.2545,-1.34389 -7.4545,-2.01227 -7.21311,-2.19142 -9.04572,-2.68802 -12.72731,-3.44886 -2,-0.41333 -4.29091,-1.0303 -5.0909,-1.37105 -1.69862,-0.72351 -8.93083,-1.90078 -18.18182,-2.95965 -3.6,-0.41206 -7.33144,-1.1264 -8.29208,-1.58743 -2.43954,-1.17078 -57.59918,-1.18537 -59.05075,-0.0156 -0.56144,0.45243 -3.96626,1.05823 -7.56626,1.34621 -3.6,0.28798 -6.87273,0.77426 -7.27273,1.08062 -0.4,0.30636 -2.52727,0.77982 -4.72727,1.05214 -2.2,0.27232 -4.98182,0.7961 -6.18182,1.16396 -1.2,0.36785 -4.14545,1.20314 -6.54545,1.8562 -2.4,0.65306 -5.01818,1.45305 -5.81818,1.77775 -0.8,0.3247 -3.90909,1.33706 -6.90909,2.24967 -3,0.91262 -5.78182,1.88552 -6.18182,2.162 -0.4,0.27648 -1.81295,0.73496 -3.1399,1.01885 -1.32694,0.28389 -3.29058,0.97421 -4.36363,1.53405 -1.07306,0.55983 -2.31399,1.0199 -2.75762,1.02236 -0.44363,0.002 -2.73454,0.98215 -5.09091,2.17709 -2.35637,1.19493 -4.85703,2.17675 -5.55703,2.18182 -0.7,0.005 -1.27273,0.33648 -1.27273,0.73648 0,0.4 -0.40909,0.73142 -0.90909,0.73649 -0.88765,0.009 -5.60256,2.30843 -12.18182,5.94101 -1.8,0.99383 -5.56363,3.0534 -8.36363,4.57683 -2.8,1.52342 -5.25455,2.96897 -5.45455,3.21231 -0.39325,0.47849 -1.3368,1.06756 -6.90909,4.31342 -2,1.165 -5.19374,3.30698 -7.0972,4.75997 -1.90346,1.45298 -3.75026,2.64179 -4.10401,2.64179 -0.35374,0 -0.83155,0.49091 -1.06179,1.09091 -0.23024,0.6 -0.79478,1.09091 -1.25452,1.09091 -0.45975,0 -1.90724,0.9 -3.21665,2 -1.30941,1.1 -3.15262,2.57749 -4.09601,3.28332 -13.71625,10.2622 -36.67909,32.64993 -47.53345,46.34294 -1.6,2.01844 -3.80909,4.53689 -4.90909,5.59657 -1.1,1.05968 -2,2.30227 -2,2.76131 0,0.45905 -0.98182,1.77527 -2.18182,2.92494 -1.2,1.14968 -2.18182,2.35636 -2.18182,2.68152 0,0.32517 -0.57272,1.2127 -1.27272,1.9723 -0.7,0.7596 -2.09091,2.57915 -3.09091,4.04344 -1,1.4643 -2.14546,3.06073 -2.54546,3.54763 -1.87291,2.27981 -4,5.58239 -4,6.21051 0,0.38287 -0.24545,0.80521 -0.54545,0.93854 -0.82803,0.36801 -3.81818,4.80645 -3.81818,5.66752 0,0.4162 -0.28911,0.75672 -0.64245,0.75672 -0.35335,0 -0.84045,0.57273 -1.08244,1.27273 -0.24199,0.7 -1.01653,2.1358 -1.72119,3.19066 -3.83472,5.7405 -10.92508,17.59732 -13.94099,23.31276 -3.08231,5.84129 -4.00302,7.4442 -4.51491,7.86022 -0.24609,0.2 -0.69929,1.18181 -1.00711,2.18181 -0.30783,1 -0.77669,1.98182 -1.04192,2.18182 -0.55787,0.42068 -13.86717,27.22175 -13.86717,27.92448 0,0.25756 -1.2755,3.16174 -2.83445,6.45373 -1.55894,3.29198 -3.07578,6.80361 -3.37075,7.80361 -0.29496,1 -0.73765,1.98182 -0.98373,2.18182 -0.76444,0.62126 -2.26562,3.57374 -2.26562,4.45592 0,0.46162 -0.69903,2.34788 -1.5534,4.19169 -1.83647,3.96327 -1.99265,4.336 -5.36645,12.80693 -2.8999,7.28104 -3.68725,9.17801 -5.1316,12.36364 -0.54408,1.2 -1.20043,3.08491 -1.45855,4.18869 -0.25812,1.10377 -0.76033,2.18673 -1.11602,2.40655 -0.35569,0.21983 -0.6467,0.87289 -0.6467,1.45124 0,0.57836 -0.81819,2.74757 -1.81819,4.82047 -1,2.0729 -1.82928,4.11675 -1.84286,4.54188 -0.0136,0.42514 -0.65701,2.08207 -1.42986,3.68207 -0.77286,1.6 -1.4163,3.48182 -1.42987,4.18182 -0.0136,0.7 -0.32595,1.27273 -0.69417,1.27273 -0.36821,0 -0.88997,1.00386 -1.15945,2.23081 -0.26948,1.22694 -0.94802,3.10876 -1.50785,4.18181 -0.55984,1.07306 -1.0199,2.52374 -1.02236,3.22374 -0.002,0.7 -0.29628,1.27273 -0.65292,1.27273 -0.35663,0 -0.8684,0.87644 -1.13725,1.94764 -0.26886,1.07121 -1.44979,4.00301 -2.6243,6.51513 -1.17451,2.51211 -2.13547,4.80072 -2.13547,5.08579 0,0.97259 -13.89368,29.41418 -17.89529,36.63325 -2.49503,4.50115 -8.66143,14.70271 -11.36943,18.80935 -0.69559,1.05486 -1.48877,2.38383 -1.76262,2.95328 -0.27385,0.56944 -0.93762,1.55126 -1.47506,2.18182 -3.26084,3.82586 -5.31578,6.48866 -5.31578,6.8882 0,0.62291 -4.58939,5.70829 -9.45454,10.47631 -6.20671,6.08279 -7.73923,7.41832 -8.51251,7.41832 -0.39413,0 -1.29362,0.63759 -1.99886,1.41688 -1.49901,1.65638 -12.62231,7.31039 -14.38196,7.31039 -0.66145,0 -1.39076,0.30437 -1.62067,0.67637 -0.22991,0.37201 -2.29468,0.87895 -4.58838,1.12654 -2.29369,0.24759 -4.73864,0.7614 -5.43321,1.1418 -1.5808,0.86578 -14.87535,0.91751 -15.40535,0.0599 -0.21473,-0.34744 -2.68107,-0.85743 -5.48074,-1.1333 -2.79968,-0.27587 -5.25424,-0.7668 -5.45457,-1.09094 -0.20033,-0.32415 -1.63728,-0.79292 -3.19323,-1.04173 -1.55594,-0.2488 -3.77228,-0.94432 -4.92521,-1.54559 -1.15292,-0.60127 -2.47381,-1.09524 -2.93531,-1.0977 -1.00691,-0.005 -19.00568,-9.13094 -20.5931,-10.44091 -0.6123,-0.50527 -1.93144,-1.31271 -2.93144,-1.79431 -1,-0.48159 -2.8,-1.52309 -4,-2.31443 -1.2,-0.79135 -2.67273,-1.664 -3.27273,-1.93923 -0.6,-0.27523 -1.25455,-0.68792 -1.45455,-0.9171 -0.82725,-0.94794 -5.08362,-3.68941 -5.72812,-3.68941 -0.38287,0 -0.80521,-0.24546 -0.93854,-0.54546 -0.29885,-0.67241 -6.18389,-5.27272 -6.74524,-5.27272 -0.22345,0 -0.97901,-0.49654 -1.67901,-1.10341 -3.6973,-3.20544 -6.61675,-5.44205 -7.10352,-5.44205 -0.30132,0 -1.30613,-0.81818 -2.2329,-1.81818 -0.92677,-1 -1.90291,-1.81818 -2.1692,-1.81818 -0.26629,0 -1.5783,-0.9 -2.91556,-2 -1.33727,-1.1 -4.74529,-3.8 -7.57338,-6 -2.82808,-2.2 -7.08101,-5.55455 -9.45094,-7.45455 -2.36992,-1.9 -4.53504,-3.45454 -4.81137,-3.45454 -0.27632,0 -1.90028,-1.14546 -3.6088,-2.54545 -1.70851,-1.4 -3.34488,-2.54546 -3.63636,-2.54546 -0.29149,0 -1.92785,-1.14545 -3.63637,-2.54545 -1.70851,-1.4 -3.31002,-2.54546 -3.55889,-2.54546 -0.63519,0 -5.06931,-3.15669 -5.36331,-3.81818 -0.13333,-0.3 -0.56386,-0.54545 -0.95673,-0.54545 -0.39286,0 -3.39286,-1.56098 -6.66666,-3.46884 -3.2738,-1.90786 -7.26146,-4.11695 -8.86146,-4.90909 -1.6,-0.79214 -3.07272,-1.6416 -3.27272,-1.88769 -0.2,-0.24608 -1.18182,-0.69425 -2.18182,-0.99591 -1,-0.30167 -3.61818,-1.35962 -5.81818,-2.351 -2.2,-0.99139 -5.03128,-2.26141 -6.29173,-2.82227 -1.26045,-0.56086 -2.79568,-1.01975 -3.41163,-1.01975 -0.61594,0 -1.31047,-0.30836 -1.5434,-0.68525 -0.23293,-0.37689 -1.89263,-0.90556 -3.68823,-1.17483 -1.79559,-0.26927 -3.42949,-0.75618 -3.63087,-1.08203 -0.20139,-0.32585 -2.24282,-0.81938 -4.53651,-1.09673 -2.2937,-0.27735 -4.62988,-0.87298 -5.19151,-1.32363 -1.41749,-1.13735 -36.27572,-1.1479 -37.00548,-0.0112 -0.28535,0.44448 -2.06574,1.03612 -3.95641,1.31475 -1.89068,0.27863 -3.60525,0.77786 -3.81015,1.1094 -0.20491,0.33155 -1.50392,0.81506 -2.8867,1.07447 -2.74239,0.51447 -21.29999,9.67312 -22.95647,11.3296 -0.2,0.2 -2,1.49108 -4,2.86908 -4.71358,3.24764 -5.78205,4.17051 -14.30766,12.35796 -3.93078,3.77487 -7.14688,7.14504 -7.14688,7.48927 0,0.34423 -0.74744,1.3466 -1.66098,2.2275 -1.98068,1.90992 -9.24811,12.61551 -9.24811,13.6233 0,0.38809 -0.26245,0.70561 -0.58323,0.70561 -0.32077,0 -2.48338,3.84546 -4.8058,8.54546 -5.5043,11.13936 -6.10366,12.49215 -6.68614,15.0909 -0.26897,1.2 -0.73339,2.50909 -1.03204,2.90909 -0.29866,0.4 -0.78223,1.87273 -1.07461,3.27273 -0.29238,1.4 -0.78408,2.87273 -1.09266,3.27273 -0.30859,0.4 -0.79018,2.11647 -1.07021,3.81437 -0.28003,1.6979 -0.77018,3.24842 -1.08922,3.4456 -0.31904,0.19718 -0.8121,1.91708 -1.09569,3.82199 -0.28359,1.90492 -0.77276,3.79077 -1.08704,4.19077 -0.543,0.69109 -1.24925,3.85558 -2.96221,13.27272 -0.41837,2.3 -1.04886,4.7116 -1.4011,5.3591 -0.35224,0.64751 -0.87113,3.51841 -1.15308,6.37978 -0.28195,2.86137 -0.79691,5.37818 -1.14435,5.59291 -0.34744,0.21473 -0.63171,1.53807 -0.63171,2.94076 0,1.40269 -0.31169,3.13275 -0.69265,3.84457 -0.38096,0.71183 -0.91556,4.37213 -1.188,8.13401 -0.27244,3.76188 -0.75551,7.17237 -1.07349,7.57887 -0.31798,0.4065 -0.80779,5.64286 -1.08847,11.63636 -0.28068,5.9935 -0.75475,11.22455 -1.05349,11.62455 -0.29874,0.4 -0.7007,6.43909 -0.89324,13.4202 -0.23676,8.58436 -0.61883,12.78252 -1.18037,12.9697 -0.45666,0.15222 -0.83029,0.7404 -0.83029,1.30707 0,1.44367 -2.46281,1.28587 -3.78345,-0.24243 -0.60488,-0.7 -1.98089,-3.1685 -3.05779,-5.48556 -1.68255,-3.6202 -2.06628,-5.76867 -2.72778,-15.27273 -0.42339,-6.08294 -0.76711,-14.00534 -0.76382,-17.60534 0.009,-10.37563 1.55175,-34.7648 2.29951,-36.36364 0.37415,-0.8 0.8969,-4.48408 1.16168,-8.18686 0.26478,-3.70277 0.73487,-6.88896 1.04465,-7.08041 0.30978,-0.19146 0.79348,-2.80518 1.07489,-5.80829 0.28142,-3.0031 0.7726,-5.62145 1.09153,-5.81856 0.31893,-0.19711 0.8078,-2.48676 1.08638,-5.08811 0.27858,-2.60135 0.80811,-4.91613 1.17672,-5.14394 0.36861,-0.22782 0.67021,-1.20164 0.67021,-2.16406 0,-1.87104 1.76868,-7.88686 2.93201,-9.97262 0.38739,-0.69458 0.70435,-1.77135 0.70435,-2.39283 0,-1.26918 4.63888,-15.52259 6.14782,-18.88977 3.43725,-7.67019 4.89257,-10.82481 7.38126,-16 1.53885,-3.2 2.96979,-5.98182 3.17987,-6.18182 0.72438,-0.68963 2.24349,-3.27606 2.66971,-4.54545 0.23504,-0.7 0.71645,-1.27273 1.0698,-1.27273 0.35334,0 0.64245,-0.34052 0.64245,-0.75672 0,-0.66879 1.90167,-3.66362 4,-6.29938 0.4,-0.50245 2.03636,-2.60241 3.63636,-4.66657 3.94182,-5.08536 15.25399,-16.42225 19.50742,-19.55005 1.90383,-1.4 3.99531,-3.03429 4.64775,-3.63174 1.42642,-1.30624 3.74256,-2.72205 5.48119,-3.35055 0.7,-0.25305 1.27273,-0.68756 1.27273,-0.96558 0,-0.88969 17.63218,-9.32582 22.90909,-10.96087 2.8,-0.86757 5.65919,-1.87712 6.35377,-2.24343 0.69457,-0.36631 2.06616,-0.66601 3.04798,-0.66601 0.98183,0 1.97561,-0.3082 2.20841,-0.68489 0.23281,-0.37668 2.71393,-0.91059 5.51361,-1.18647 2.79968,-0.27587 5.26601,-0.78585 5.48074,-1.1333 0.50735,-0.8209 30.64309,-0.82764 31.1503,-0.007 0.21237,0.34361 2.52853,0.84424 5.14703,1.11251 2.61851,0.26828 5.49135,0.77566 6.38408,1.12753 0.89274,0.35186 3.5868,1.19067 5.9868,1.86401 2.4,0.67335 5.39492,1.68483 6.65537,2.24774 1.26045,0.5629 2.6558,1.02346 3.10078,1.02346 0.44497,0 1.37733,0.31142 2.0719,0.69204 0.69457,0.38063 2.57195,1.2339 4.17195,1.89617 4.79386,1.98426 18.15397,8.55828 18.55274,9.12913 0.20401,0.29204 1.26764,0.75604 2.36364,1.03112 1.09599,0.27507 1.99271,0.75376 1.99271,1.06374 0,0.30999 0.57273,0.75592 1.27273,0.99096 1.35017,0.45334 2.82933,1.33874 6.36363,3.80914 1.2,0.83877 2.5091,1.65778 2.9091,1.82001 0.4,0.16223 3.12306,1.93133 6.05125,3.93133 2.92819,2 5.87364,3.96363 6.54545,4.36363 2.35297,1.40097 15.19817,11.24018 16.11255,12.34193 0.50786,0.61194 1.24429,1.11262 1.63649,1.11262 0.39221,0 2.96118,1.88182 5.70883,4.18182 4.44094,3.71741 8.50119,6.95027 18.03977,14.36363 1.544,1.2 3.54197,2.67273 4.43992,3.27273 2.51523,1.68064 8.33129,6.04516 8.73846,6.55757 0.2,0.25169 0.85454,0.6828 1.45454,0.95803 0.6,0.27523 1.94564,1.06954 2.99031,1.76514 8.27559,5.5103 24.80546,14.71392 26.44414,14.72374 0.41105,0.002 1.6612,0.48114 2.77809,1.06372 1.1169,0.58258 3.16597,1.27221 4.55349,1.53251 1.38752,0.2603 2.69031,0.74437 2.89509,1.07571 0.20478,0.33134 2.66297,0.82815 5.46265,1.10402 2.79968,0.27588 5.26602,0.78586 5.48075,1.1333 0.50927,0.82402 11.00899,0.82399 11.51826,-3e-5 0.21474,-0.34746 1.62687,-0.82946 3.13806,-1.07111 3.63735,-0.58163 10.55535,-4.11879 13.54057,-6.92326 0.91079,-0.85564 1.96215,-1.56313 2.33637,-1.5722 1.33467,-0.0324 16.31676,-16.63302 16.31676,-18.07951 0,-0.4472 0.28973,-0.81308 0.64384,-0.81308 0.53951,0 3.12426,-3.84635 7.57529,-11.27273 0.47948,-0.8 1.05929,-1.61818 1.28847,-1.81818 0.22917,-0.2 0.64094,-0.85455 0.91502,-1.45455 0.27409,-0.6 2.12418,-4.03636 4.11132,-7.63636 1.98713,-3.6 4.35688,-8.01818 5.26611,-9.81818 0.90924,-1.8 1.8548,-3.43637 2.10126,-3.63637 0.24646,-0.2 0.69933,-1.18181 1.00638,-2.18181 0.30705,-1 1.98752,-4.82673 3.73438,-8.50384 1.74687,-3.6771 3.17612,-7.19528 3.17612,-7.81818 0,-0.62289 0.32727,-1.13253 0.72727,-1.13253 0.4,0 0.72727,-0.35963 0.72727,-0.79918 0,-0.85218 1.59547,-4.7811 3.31722,-8.16885 0.57553,-1.13241 1.04642,-2.39204 1.04642,-2.79918 0,-0.81548 1.73665,-4.96812 3.33785,-7.98136 0.56418,-1.06172 1.02578,-2.61627 1.02578,-3.45455 0,-0.83828 0.31245,-1.52415 0.69432,-1.52415 0.38188,0 0.90989,-1.14907 1.17336,-2.55349 0.26347,-1.40442 0.7692,-2.73282 1.12386,-2.95201 0.35465,-0.21919 0.64684,-0.95194 0.64931,-1.62833 0.002,-0.67639 0.49337,-2.16722 1.09091,-3.31294 0.59753,-1.14572 1.09753,-2.45481 1.1111,-2.90909 0.0136,-0.45428 0.65701,-2.13505 1.42987,-3.73505 0.77285,-1.6 1.4163,-3.4625 1.42987,-4.1389 0.0136,-0.67639 0.32677,-1.41651 0.69599,-1.6447 0.36923,-0.22819 0.89098,-1.41501 1.15946,-2.63736 0.26847,-1.22236 0.94618,-3.10043 1.50602,-4.17348 0.55983,-1.07306 1.0199,-2.36454 1.02236,-2.86997 0.005,-0.93071 0.24749,-1.51808 2.42688,-5.86725 0.66768,-1.33242 1.21396,-2.75569 1.21396,-3.16282 0,-0.40713 0.52428,-1.93515 1.16507,-3.39561 0.64078,-1.46045 1.44109,-3.30991 1.77847,-4.10991 0.33737,-0.8 1.28582,-2.99113 2.10766,-4.86919 0.82184,-1.87805 1.49426,-3.73335 1.49426,-4.12288 0,-0.38953 0.47089,-1.63475 1.04641,-2.76717 0.57553,-1.13242 1.57948,-3.36803 2.23101,-4.96803 1.87063,-4.59386 2.62408,-6.38845 3.6641,-8.72727 0.53361,-1.2 1.67273,-3.81818 2.53138,-5.81818 0.85866,-2 2.2318,-5.10909 3.05143,-6.90909 2.31194,-5.07725 19.39308,-39.28264 21.24591,-42.54546 0.90859,-1.6 2.40097,-4.21818 3.31642,-5.81818 0.91544,-1.6 2.48591,-4.38182 3.48993,-6.18182 1.00401,-1.79999 2.02138,-3.43636 2.26081,-3.63636 0.23943,-0.2 1.22031,-1.83636 2.17974,-3.63636 0.95942,-1.8 2.1867,-3.78941 2.72727,-4.4209 0.54057,-0.6315 0.98286,-1.5315 0.98286,-2 0,-0.46851 0.25285,-0.85183 0.56189,-0.85183 0.30904,0 1.20904,-1.20321 2,-2.6738 0.79096,-1.47059 1.77763,-3.02514 2.1926,-3.45454 0.41497,-0.42941 1.5334,-2.08984 2.4854,-3.68984 0.952,-1.6 2.82157,-4.27326 4.1546,-5.94058 1.33303,-1.66732 2.42369,-3.2684 2.42369,-3.55795 0,-0.28956 1.47273,-2.25031 3.27273,-4.35724 1.8,-2.10692 3.27272,-4.05631 3.27272,-4.33197 0,-1.40585 18.0146,-21.85418 28.82691,-32.72135 10.52251,-10.5759 31.89316,-29.45454 33.34258,-29.45454 0.27215,0 1.89268,-1.14546 3.6012,-2.54546 1.70851,-1.4 3.34488,-2.54545 3.63636,-2.54545 0.29149,0 1.89414,-1.06364 3.56146,-2.36364 1.66732,-1.3 3.68604,-2.7587 4.48604,-3.24157 12.63321,-7.62515 19.43682,-11.50844 22.36363,-12.76448 1.1,-0.47206 2,-1.11381 2,-1.42612 0,-0.3123 0.37594,-0.56783 0.83542,-0.56783 0.45948,0 2.83221,-0.9641 5.27273,-2.14244 3.94768,-1.90605 6.50839,-3.07857 16.54722,-7.57682 1.46045,-0.6544 2.97758,-1.18983 3.37141,-1.18983 0.39382,0 1.65346,-0.48889 2.79918,-1.08643 1.14572,-0.59753 2.63654,-1.08844 3.31294,-1.0909 0.67639,-0.002 1.40914,-0.29466 1.62833,-0.64931 0.21919,-0.35466 1.58788,-0.86795 3.04154,-1.14066 1.45366,-0.27271 3.17546,-0.78351 3.82622,-1.13511 1.03292,-0.55807 4.40795,-1.56969 14.63774,-4.38743 1.4,-0.38562 4.01818,-1.0479 5.81818,-1.47173 1.8,-0.42383 4.58181,-1.09741 6.18181,-1.49685 6.43774,-1.60715 14.17567,-2.96696 20.72728,-3.64248 3.8,-0.3918 8.21818,-1.10211 9.81818,-1.57846 3.90567,-1.16279 52.8307,-1.18554 54.27794,-0.0252 0.54713,0.43865 4.43115,1.03334 8.63115,1.32153 4.2,0.28818 7.96363,0.73772 8.36363,0.99898 0.4,0.26125 3.01818,0.86518 5.81818,1.34206 8.13834,1.38608 10.1354,1.82641 10.90909,2.4053 0.4,0.29929 2.36364,0.77971 4.36364,1.0676 2,0.28789 3.96364,0.7788 4.36364,1.09091 0.4,0.31211 2.27419,0.7913 4.16486,1.06487 1.89066,0.27356 3.60926,0.7751 3.81896,1.11451 0.2098,0.33942 2.0174,0.84213 4.017,1.11714 1.9995,0.27501 3.6355,0.77652 3.6355,1.11448 0,0.33795 1.4728,0.83531 3.2728,1.10524 1.8,0.26993 3.2727,0.78089 3.2727,1.13547 0,0.35458 0.5233,0.6447 1.1628,0.6447 0.6396,0 2.1941,0.44005 3.4546,0.9779 1.2604,0.53785 5.0735,2.05424 8.4735,3.36975 3.4,1.31551 7.6545,3.03953 9.4545,3.83116 3.5726,1.5712 26.6648,13.04625 30.1819,14.99803 10.183,5.65111 22.4358,13.20967 22.7878,14.05753 0.1334,0.32109 0.5557,0.5838 0.9386,0.5838 0.8157,0 5.2528,3.02158 5.6069,3.81819 0.1333,0.3 0.5726,0.54545 0.9762,0.54545 0.4036,0 1.4839,0.57273 2.4007,1.27273 0.9168,0.7 2.411,1.76363 3.3204,2.36363 0.9094,0.6 2.7087,1.99091 3.9983,3.09091 1.2897,1.1 2.5828,2 2.8737,2 0.2908,0 1.2294,0.62656 2.0858,1.39236 4.4284,3.95999 7.4636,6.42668 8.2246,6.68403 2.893,0.97827 41.4497,37.61271 46.3224,44.0129 1.2555,1.6491 4.5736,5.63673 7.3736,8.86138 4.1824,4.81662 9.2076,11.02572 12.1767,15.04517 0.748,1.01263 5.4923,7.08285 6.374,8.15528 0.3971,0.48312 0.7221,1.16876 0.7221,1.52365 0,0.35488 0.6545,1.2376 1.4545,1.96159 0.8,0.72399 1.4546,1.60671 1.4546,1.9616 0,0.35489 0.3311,1.04053 0.7359,1.52364 0.4048,0.48312 1.71,2.18749 2.9004,3.78749 1.1905,1.6 2.4303,3.23636 2.7553,3.63636 0.3249,0.4 0.8326,1.21818 1.1281,1.81818 0.8966,1.82039 2.2058,3.90194 4.1166,6.54546 2.0679,2.86073 3.1817,4.66398 4.4921,7.27273 0.5023,1 1.5797,2.8 2.3942,4 2.2794,3.35803 3.2295,4.93045 4.1745,6.90909 0.4776,1 1.5388,2.79691 2.3583,3.99314 0.8195,1.19622 2.5115,4.14168 3.7599,6.54545 3.8618,7.43538 4.985,9.44671 5.4906,9.83178 0.2683,0.20431 0.7129,1.26819 0.988,2.36418 0.275,1.096 0.7919,1.99272 1.1485,1.99272 0.3567,0 0.6485,0.34717 0.6485,0.7715 0,0.42433 1.9946,4.92433 4.4324,10 2.4379,5.07567 5.3833,11.218 6.5455,13.64961 1.1621,2.43161 2.113,4.96797 2.113,5.63636 0,0.66839 0.3012,1.21525 0.6695,1.21525 0.3682,0 0.8821,0.96833 1.1421,2.15185 0.2599,1.18351 1.2539,3.77141 2.2088,5.75087 0.955,1.97947 1.95,4.4506 2.2112,5.4914 0.2612,1.04079 0.766,2.07221 1.1217,2.29204 0.3557,0.21983 0.6578,0.9531 0.6714,1.62949 0.014,0.67639 0.657,2.5389 1.4298,4.1389 0.7729,1.6 1.4163,3.32262 1.4299,3.82805 0.014,0.50542 0.3215,1.48724 0.6843,2.18182 0.3628,0.69457 1.7023,4.20831 2.9767,7.80831 1.2744,3.6 2.5724,7.0471 2.8843,7.66023 0.3119,0.61313 0.8102,2.2495 1.1072,3.63637 0.2971,1.38687 0.7926,2.84885 1.1012,3.24885 0.3086,0.4 0.7987,2.2 1.0892,4 0.2904,1.8 0.7805,3.6 1.0891,4 0.3086,0.4 0.8003,1.87273 1.0927,3.27273 0.2923,1.4 0.7798,2.87273 1.0831,3.27273 0.3034,0.4 0.7754,2.27419 1.049,4.16486 0.2735,1.89068 0.7751,3.60923 1.1145,3.819 0.3394,0.20977 0.8421,2.01703 1.117,4.01614 0.275,1.9991 0.7736,3.80389 1.1081,4.01065 0.3346,0.20675 0.8325,2.17075 1.1066,4.36445 0.2741,2.19369 0.7502,3.98853 1.058,3.98853 0.3079,0 0.7926,1.88182 1.0772,4.18182 0.2847,2.3 0.7729,4.50909 1.085,4.90909 0.3121,0.4 0.7944,2.60393 1.0717,4.89763 0.2774,2.29369 0.8087,4.35846 1.1807,4.58837 0.372,0.22991 0.6763,1.52485 0.6763,2.87764 0,1.35278 0.3016,2.646 0.6702,2.87382 0.3687,0.22781 0.8982,2.54259 1.1768,5.14394 0.2785,2.60135 0.7618,4.88752 1.0738,5.08038 0.3121,0.19286 0.8007,2.72467 1.0859,5.62625 0.2852,2.90158 0.7731,5.60288 1.0843,6.00288 0.3111,0.4 0.8058,3.16867 1.0992,6.1526 0.2935,2.98392 0.8091,5.92938 1.1459,6.54545 0.591,1.08099 1.2782,5.75316 2.9996,20.39285 0.4469,3.8 1.0333,7.07273 1.3032,7.27273 0.4606,0.34136 0.8048,3.0819 3.1515,25.09091 0.5117,4.8 1.1396,9.21818 1.3951,9.81818 0.4523,1.06182 1.4028,13.11919 2.6658,33.81818 0.3418,5.6 0.6582,15.88585 0.7032,22.85746 0.05,7.77181 0.417,13.60243 0.9482,15.07128 0.7189,1.988 0.6431,3.11056 -0.4453,6.59708 -0.7213,2.3108 -1.5569,4.52872 -1.8569,4.92872 -0.2999,0.4 -0.7689,1.66136 -1.0421,2.80303 -0.8457,3.53335 -2.5917,5.56061 -4.7893,5.56061 -1.105,0 -2.4166,-0.49091 -2.9145,-1.09091 z m -73.3119,-4.21644 c -1.2785,-1.31904 -2.3245,-2.67906 -2.3245,-3.02226 0,-0.3432 -0.7675,-1.63671 -1.7057,-2.87447 -2.477,-3.26804 -2.7336,-4.94807 -3.4543,-22.6141 -0.359,-8.8 -0.9607,-16.65455 -1.3372,-17.45455 -0.3765,-0.8 -0.9027,-4.4 -1.1694,-8 -0.2667,-3.59999 -0.6963,-6.87272 -0.9546,-7.27272 -0.2583,-0.4 -0.865,-3.34546 -1.3481,-6.54546 -1.858,-12.30545 -2.7748,-17.48097 -3.2206,-18.18181 -0.2545,-0.4 -0.7001,-2.85455 -0.9901,-5.45455 -0.2901,-2.6 -0.7779,-5.05454 -1.084,-5.45454 -0.3061,-0.4 -0.7921,-2.69091 -1.08,-5.09091 -0.2879,-2.4 -0.7756,-4.69091 -1.0838,-5.09091 -0.3083,-0.4 -0.7873,-2.50847 -1.0645,-4.68549 -0.2772,-2.17702 -0.7298,-4.30429 -1.0058,-4.72727 -0.276,-0.42298 -0.8833,-2.56906 -1.3495,-4.76906 -0.4661,-2.2 -1.2325,-5.30909 -1.703,-6.90909 -0.4705,-1.6 -1.2358,-4.54545 -1.7006,-6.54545 -0.4649,-2 -1.0597,-3.96613 -1.3219,-4.36918 -0.2621,-0.40304 -0.7127,-2.03941 -1.0011,-3.63636 -0.2885,-1.59696 -0.7721,-3.23083 -1.0747,-3.63083 -0.3027,-0.4 -0.7794,-2.11646 -1.0594,-3.81437 -0.28,-1.6979 -0.7795,-3.25416 -1.1099,-3.45835 -0.3303,-0.2042 -0.8213,-1.67692 -1.0909,-3.27273 -0.2696,-1.59581 -0.7605,-3.06854 -1.0909,-3.27273 -0.3304,-0.20419 -0.8213,-1.67692 -1.0909,-3.27272 -0.2696,-1.59581 -0.7605,-3.06854 -1.0909,-3.27273 -0.3304,-0.20419 -0.8213,-1.67692 -1.0909,-3.27273 -0.2696,-1.59581 -0.789,-3.08613 -1.1542,-3.31184 -0.3652,-0.2257 -0.666,-0.96378 -0.6685,-1.64017 0,-0.67639 -0.4625,-2.10776 -1.0223,-3.18082 -0.5599,-1.07305 -1.2502,-3.03669 -1.5341,-4.36363 -0.2839,-1.32695 -0.777,-2.7399 -1.0959,-3.1399 -0.3188,-0.4 -1.6,-3.34546 -2.847,-6.54546 -1.247,-3.2 -2.5669,-6.47272 -2.9329,-7.27272 -2.5047,-5.47318 -3.6542,-8.43481 -3.6542,-9.41465 0,-0.62194 -0.2918,-1.13081 -0.6484,-1.13081 -0.3567,0 -0.8717,-0.88942 -1.1445,-1.9765 -0.2729,-1.08708 -1.2599,-3.62344 -2.1934,-5.63636 -0.9334,-2.01293 -2.4064,-5.29623 -3.2732,-7.29623 -2.65,-6.11458 -5.4386,-11.62341 -6.0132,-11.87878 -0.3,-0.13334 -0.5494,-0.62425 -0.5543,-1.09091 -0.011,-1.07907 -10.7272,-22.38051 -13.3163,-26.4704 -1.0712,-1.69205 -1.9476,-3.25985 -1.9476,-3.48399 0,-0.22415 -0.6115,-1.29429 -1.3588,-2.37809 -3.5822,-5.19475 -9.5503,-14.75062 -9.5503,-15.29158 0,-0.33398 -0.8182,-1.37588 -1.8182,-2.31533 -1,-0.93946 -1.8181,-2.15223 -1.8181,-2.69506 0,-0.54283 -0.491,-1.17534 -1.091,-1.40558 -0.6,-0.23024 -1.0909,-0.82379 -1.0909,-1.319 0,-0.49521 -0.6545,-1.49274 -1.4545,-2.21673 -0.8,-0.72399 -1.4546,-1.72926 -1.4546,-2.23393 0,-0.50467 -0.2454,-1.02667 -0.5454,-1.16001 -0.6791,-0.30182 -6.1045,-6.93875 -7.0909,-8.67433 -0.9538,-1.67822 -15.583,-17.92783 -20.8273,-23.13413 -6.4452,-6.39861 -21.3831,-19.73661 -23.6569,-21.12312 -1.1337,-0.69131 -2.5104,-1.80088 -3.0594,-2.4657 -0.549,-0.66483 -1.449,-1.20877 -2,-1.20877 -0.551,0 -1.0019,-0.28379 -1.0019,-0.63063 0,-0.66505 -5.2881,-4.45737 -7.4545,-5.34594 -0.7,-0.28711 -1.2727,-0.82167 -1.2727,-1.1879 0,-0.36624 -0.5728,-0.86254 -1.2728,-1.10289 -0.7,-0.24035 -2.5818,-1.26727 -4.1818,-2.28204 -1.6,-1.01477 -3.4,-2.0597 -4,-2.32205 -0.6,-0.26235 -1.2545,-0.66451 -1.4545,-0.89369 -1.2191,-1.39687 -19.5909,-10.57237 -22.7273,-11.35074 -1.1,-0.273 -2,-0.78815 -2,-1.14478 0,-0.35664 -0.5727,-0.65045 -1.2727,-0.65291 -0.7,-0.002 -2.1507,-0.46253 -3.2238,-1.02237 -1.073,-0.55983 -3.0367,-1.25015 -4.3636,-1.53404 -1.327,-0.28389 -2.7399,-0.76786 -3.1399,-1.07548 -0.4,-0.30762 -1.862,-0.80235 -3.2489,-1.0994 -1.3868,-0.29705 -3.0232,-0.79556 -3.63633,-1.10778 -2.16399,-1.10199 -8.94411,-2.88373 -10.97355,-2.88373 -1.13046,0 -2.24052,-0.29955 -2.46679,-0.66567 -0.22628,-0.36613 -2.94559,-0.89631 -6.04292,-1.1782 -3.09734,-0.28188 -6.02514,-0.82775 -6.50624,-1.21303 -1.20353,-0.96384 -32.44336,-0.94594 -34.96649,0.02 -1.08733,0.41628 -4.51333,0.97053 -7.61333,1.23165 -3.1,0.26113 -5.63636,0.73642 -5.63636,1.0562 0,0.31979 -1.88182,0.81431 -4.18182,1.09895 -2.3,0.28464 -4.50909,0.75956 -4.90909,1.05537 -0.4,0.29582 -2.69091,1.10165 -5.09091,1.79073 -2.4,0.68908 -4.93192,1.56096 -5.62649,1.93752 -0.69458,0.37655 -1.67639,0.68665 -2.18182,0.68912 -0.50543,0.002 -1.79692,0.46252 -2.86997,1.02236 -1.07306,0.55983 -2.95488,1.23837 -4.18182,1.50785 -1.22694,0.26948 -2.23081,0.79124 -2.23081,1.15945 0,0.36822 -0.58464,0.66949 -1.29921,0.66949 -1.20569,0 -13.23598,5.80915 -19.06442,9.20577 -6.28451,3.6624 -10.56471,6.41884 -10.78788,6.94737 -0.13333,0.31577 -0.55568,0.57413 -0.93854,0.57413 -0.62813,0 -3.93071,2.12709 -6.21051,4 -0.4869,0.4 -2.07529,1.54546 -3.52976,2.54546 -1.45446,1 -3.45461,2.47272 -4.44476,3.27272 -0.99016,0.8 -3.43576,2.76364 -5.43467,4.36364 -5.87144,4.69971 -23.0604,20.75838 -29.68676,27.73465 -3.36809,3.54594 -8.19536,8.61332 -10.72727,11.26083 -2.53192,2.64752 -4.60349,5.07044 -4.60349,5.38428 0,0.31383 -1.55454,2.24454 -3.45454,4.29047 -1.9,2.04593 -4.6,5.13974 -6,6.87514 -1.4,1.7354 -3.69091,4.55897 -5.09091,6.27461 -1.4,1.71563 -3.36364,4.19714 -4.36364,5.51447 -2.81993,3.71475 -6.42834,8.18332 -7.63408,9.45383 -0.60125,0.63355 -1.09319,1.40853 -1.09319,1.72217 0,0.31364 -0.9,1.62544 -2,2.91511 -1.1,1.28967 -2.49091,3.10271 -3.09091,4.02898 -0.6,0.92627 -1.99091,2.73931 -3.09091,4.02899 -1.1,1.28967 -2,2.5835 -2,2.87518 0,0.29168 -1.23728,2.04848 -2.74951,3.90399 -2.81336,3.452 -6.49668,8.59159 -7.79594,10.8782 -0.4,0.70398 -1.95454,2.77352 -3.45454,4.59898 -1.5,1.82545 -2.72728,3.57887 -2.72728,3.89648 0,0.3176 -1.14545,1.97534 -2.54545,3.68386 -1.4,1.70851 -2.54546,3.35749 -2.54546,3.66439 0,0.3069 -0.61239,1.23364 -1.36088,2.05942 -2.13312,2.35339 -6.63912,9.04379 -6.63912,9.8576 0,0.4041 -0.29494,0.73473 -0.65543,0.73473 -0.60558,0 -2.72907,2.97941 -5.02061,7.04428 -0.52183,0.92564 -1.25819,1.68299 -1.63637,1.68299 -0.37817,0 -0.68758,0.44019 -0.68758,0.97819 0,0.538 -0.65455,1.57055 -1.45455,2.29454 -0.8,0.72399 -1.45455,1.72925 -1.45455,2.23393 0,0.50467 -0.24545,1.02667 -0.54545,1.16001 -0.70197,0.31198 -5.27273,6.19598 -5.27273,6.78766 0,0.41868 -1.35525,2.22808 -9.27272,12.38006 -1.7,2.17978 -3.09091,4.14584 -3.09091,4.36901 0,0.22317 -1.55455,2.3448 -3.45455,4.71473 -1.9,2.36993 -5.25454,6.6182 -7.45454,9.44059 -5.87069,7.53155 -16.36163,20.35593 -23.16796,28.32107 -4.62533,5.41282 -35.92399,37.13839 -36.63864,37.13839 -0.31667,0 -1.79882,1.11133 -3.29367,2.46964 -5.75839,5.23239 -8.73283,7.71217 -9.25058,7.71217 -0.29601,0 -2.10176,1.30909 -4.01279,2.90909 -1.91102,1.6 -3.70934,2.90909 -3.99627,2.90909 -0.28692,0 -1.71423,0.9 -3.17179,2 -3.0356,2.29092 -4.27619,3.02661 -11.58641,6.8709 -2.91496,1.53291 -5.86041,3.09505 -6.54545,3.47142 -2.36119,1.29725 -10.70889,4.87745 -14.33644,6.14868 -2,0.70088 -4.13985,1.53212 -4.75524,1.8472 -0.61538,0.31508 -2.57902,0.81398 -4.36363,1.10866 -1.78462,0.29468 -3.57204,0.7896 -3.97204,1.09982 -0.4,0.31022 -2.85454,0.80058 -5.45454,1.08969 -2.6,0.28911 -5.18666,0.89829 -5.74814,1.35373 -1.4245,1.15549 -40.8853,1.16232 -42.3219,0.007 -0.56148,-0.45142 -3.22651,-1.04983 -5.92231,-1.3298 -2.69579,-0.27997 -5.06449,-0.77286 -5.26378,-1.09532 -0.19929,-0.32246 -1.92092,-0.81832 -3.82583,-1.10191 -1.90492,-0.28359 -3.79076,-0.77447 -4.19076,-1.09084 -0.4,-0.31638 -1.77689,-0.79958 -3.05974,-1.07379 -1.28286,-0.2742 -3.59583,-1.10894 -5.13994,-1.85498 -1.5441,-0.74603 -3.6854,-1.57676 -4.75844,-1.84608 -1.07304,-0.26931 -1.95097,-0.75545 -1.95097,-1.08031 0,-0.32485 -1.03468,-0.8179 -2.29929,-1.09565 -2.57746,-0.56611 -19.52667,-9.25297 -22.42799,-11.49487 -1.07154,-0.828 -3.29508,-2.15638 -6.19205,-3.69923 -0.80563,-0.42905 -2.4434,-1.43465 -3.63948,-2.23465 -4.06239,-2.71711 -5.07592,-3.3144 -6.35028,-3.7423 -0.7,-0.23504 -1.27273,-0.72454 -1.27273,-1.08779 0,-0.36325 -0.73636,-0.97884 -1.63636,-1.36799 -1.6839,-0.72809 -4.26584,-2.24957 -4.90909,-2.89282 -0.64326,-0.64326 -3.2252,-2.16474 -4.9091,-2.89283 -0.9,-0.38915 -1.63636,-0.9653 -1.63636,-1.28035 0,-0.56293 -1.02141,-1.17514 -5.54758,-3.32511 -1.25117,-0.59431 -2.50082,-1.4462 -2.777,-1.89307 -0.27619,-0.44688 -1.54341,-1.29187 -2.81606,-1.87777 -1.27265,-0.5859 -2.95605,-1.48094 -3.7409,-1.98898 -7.19262,-4.65588 -25.49261,-14.26186 -29.48209,-15.47566 -1,-0.30426 -1.98182,-0.75453 -2.18182,-1.00062 -0.63102,-0.77643 -3.57808,-2.26458 -4.53559,-2.29029 -0.50542,-0.0136 -2.22805,-0.65701 -3.82805,-1.42987 -1.6,-0.77285 -3.28077,-1.41629 -3.73505,-1.42987 -0.45427,-0.0136 -1.76336,-0.51357 -2.90909,-1.1111 -1.14572,-0.59754 -2.80018,-1.08845 -3.67657,-1.09091 -0.87639,-0.002 -1.78155,-0.30885 -2.01147,-0.68085 -0.22991,-0.37201 -2.21286,-0.90063 -4.40655,-1.17471 -2.1937,-0.27409 -3.98854,-0.76333 -3.98854,-1.08721 0,-0.32388 -2.95257,-0.81985 -6.56127,-1.10216 -3.6087,-0.2823 -6.73711,-0.79778 -6.95201,-1.1455 -0.50475,-0.81671 -14.64258,-0.82952 -15.14677,-0.0137 -0.21024,0.34017 -2.89589,0.83098 -5.96812,1.09068 -3.07223,0.2597 -5.9468,0.76176 -6.38794,1.1157 -0.44114,0.35394 -1.85222,0.86799 -3.13573,1.14234 -2.22099,0.47473 -8.79126,3.28564 -11.12088,4.75775 -0.6,0.37915 -2.12479,1.21249 -3.38843,1.85187 -1.26363,0.63937 -2.8689,1.79388 -3.56726,2.56556 -0.69836,0.77168 -1.65318,1.40305 -2.12182,1.40305 -1.05795,0 -10.73738,10.18338 -14.24725,14.98903 -4.81055,6.5865 -12.28191,19.89876 -12.30239,21.92006 -0.005,0.5 -0.31048,0.90909 -0.6787,0.90909 -0.36822,0 -0.88513,0.98182 -1.1487,2.18182 -0.26356,1.2 -0.70366,2.18182 -0.97799,2.18182 -0.27433,0 -1.1072,1.71818 -1.85082,3.81818 -0.74363,2.1 -2.12407,5.42265 -3.06766,7.38367 -0.94358,1.96102 -1.92181,4.66463 -2.17383,6.00803 -0.25202,1.3434 -0.72949,2.6102 -1.06103,2.8151 -0.33154,0.20491 -0.82251,1.83765 -1.09104,3.62833 -0.26853,1.79068 -0.74764,3.25578 -1.06468,3.25578 -0.31705,0 -0.80146,1.63599 -1.07647,3.63555 -0.27501,1.99955 -0.76597,3.79992 -1.09102,4.00081 -0.32505,0.20089 -0.81596,2.00089 -1.09091,4 -0.27495,1.99911 -0.76432,3.79815 -1.08748,3.99788 -0.32317,0.19973 -0.81562,2.32796 -1.09434,4.72939 -0.27871,2.40144 -0.76848,4.528 -1.08837,4.7257 -0.31988,0.19771 -0.81493,2.73348 -1.1001,5.63506 -0.28518,2.90158 -0.77052,5.60288 -1.07854,6.00288 -0.30802,0.4 -0.79186,3.58969 -1.07521,7.08819 -0.28334,3.49851 -0.7837,6.52689 -1.11189,6.72972 -1.6098,0.99491 -1.7864,-32.32645 -0.1844,-34.79297 0.30118,-0.46372 0.93147,-3.4613 1.40065,-6.6613 1.25581,-8.56525 2.40665,-14.39762 3.09108,-15.66539 0.33255,-0.61596 0.83909,-2.82468 1.12565,-4.90828 0.28657,-2.08359 0.78699,-3.95271 1.11204,-4.15361 0.32505,-0.20089 0.81601,-2.00126 1.09102,-4.00081 0.27501,-1.99955 0.79658,-3.63555 1.15904,-3.63555 0.36247,0 0.65903,-0.79887 0.65903,-1.77526 0,-0.97639 0.29017,-1.9546 0.64483,-2.17378 0.35465,-0.21919 0.85421,-1.51466 1.11013,-2.87881 0.42709,-2.27661 1.66375,-5.42675 3.38273,-8.61683 0.37427,-0.69457 0.68049,-1.65882 0.68049,-2.14279 0,-0.48396 2.29043,-5.47931 5.08984,-11.10077 4.96186,-9.96383 6.14209,-12.12187 7.63743,-13.96487 0.4,-0.493 1.54546,-2.13032 2.54546,-3.63849 2.00367,-3.02188 14.56826,-16.19173 15.48399,-16.22989 0.61938,-0.0258 5.00311,-2.98085 5.6142,-3.78448 0.20401,-0.26829 1.26765,-0.71286 2.36364,-0.98793 1.09599,-0.27508 1.99271,-0.76593 1.99271,-1.09079 0,-0.32485 0.98182,-0.80629 2.18182,-1.06985 1.2,-0.26357 2.18182,-0.78048 2.18182,-1.1487 0,-0.36821 0.67606,-0.66948 1.50236,-0.66948 0.82629,0 2.19486,-0.37062 3.04126,-0.8236 1.54167,-0.82508 7.72567,-2.56157 11.82002,-3.3191 1.2,-0.22202 2.64123,-0.77165 3.20274,-1.2214 1.50647,-1.20663 32.42679,-1.11546 33.64144,0.0992 0.4957,0.4957 1.96195,0.90127 3.25835,0.90127 1.29639,0 2.54518,0.30437 2.7751,0.67637 0.22991,0.37201 2.21718,0.90117 4.41616,1.17591 2.19899,0.27475 4.15918,0.76008 4.35599,1.07853 0.19681,0.31844 1.6635,0.79958 3.2593,1.06919 1.59581,0.26961 3.08614,0.789 3.31184,1.15419 0.2257,0.3652 0.91432,0.66399 1.53026,0.66399 1.13298,0 4.72158,1.40222 8.48957,3.31722 1.13241,0.57553 2.40214,1.04642 2.82161,1.04642 1.23702,0 23.27893,11.01065 25.73355,12.85474 1.23776,0.92989 2.49023,1.69071 2.78327,1.69071 0.29304,0 3.53487,1.81841 7.20408,4.04091 3.6692,2.2225 7.32582,4.43077 8.12582,4.90727 0.8,0.47649 2.49635,1.60354 3.76966,2.50454 1.27331,0.90101 2.5353,1.63819 2.80443,1.63819 0.26913,0 1.68187,0.912 3.13943,2.02667 1.45757,1.11466 3.87739,2.66181 5.37739,3.43811 1.5,0.77629 2.72727,1.66429 2.72727,1.97333 0,0.30904 0.34053,0.56189 0.75672,0.56189 0.86107,0 5.29951,2.99016 5.66752,3.81818 0.13334,0.3 0.63171,0.54546 1.1075,0.54546 0.47578,0 2.60435,1.14545 4.73014,2.54545 2.12579,1.4 4.13651,2.54546 4.46827,2.54546 0.33175,0 0.71227,0.24545 0.84561,0.54545 0.28714,0.64608 2.22897,1.71835 14.8758,8.21441 5.24836,2.69583 10.56655,5.12643 11.81819,5.40133 1.25163,0.27491 2.2757,0.78105 2.2757,1.12476 0,0.3437 1.47273,0.84577 3.27273,1.1157 1.8,0.26992 3.27273,0.75017 3.27273,1.06722 0,0.31705 1.636,0.80146 3.63555,1.07647 1.99955,0.27501 3.79896,0.76442 3.99869,1.08759 0.19973,0.32317 2.40919,0.81987 4.90991,1.10379 2.50071,0.28391 4.95651,0.84765 5.45733,1.25274 1.30466,1.05532 28.5809,1.57477 34.72579,0.66133 8.41923,-1.25153 13.75021,-2.31695 15.00137,-2.99807 0.65076,-0.35427 2.37256,-0.86726 3.82622,-1.13997 1.45366,-0.2727 2.82235,-0.786 3.04154,-1.14066 0.21919,-0.35465 0.90248,-0.64482 1.51842,-0.64482 0.61594,0 2.31481,-0.53776 3.77526,-1.19502 9.31343,-4.1914 14.77577,-6.97723 18.183,-9.27346 2.14019,-1.44234 4.05673,-2.62243 4.25897,-2.62243 0.20225,0 1.60736,-0.98182 3.12249,-2.18182 1.51512,-1.2 2.97232,-2.18182 3.23821,-2.18182 0.43802,0 4.50851,-3.04787 7.77028,-5.81818 0.70644,-0.6 3.30257,-2.72727 5.76916,-4.72727 8.72006,-7.07051 33.29775,-32.33075 42.85871,-44.04893 1.4,-1.71588 3.69091,-4.52564 5.09091,-6.2439 1.4,-1.71826 4.34545,-5.43375 6.54545,-8.25664 2.2,-2.82289 5.55455,-7.07156 7.45455,-9.44148 1.9,-2.36993 3.45454,-4.49156 3.45454,-4.71474 0,-0.22317 1.39091,-2.18007 3.09091,-4.34865 3.09132,-3.94342 4.56261,-5.96035 13.28974,-18.21838 2.56303,-3.6 4.99862,-6.94074 5.41243,-7.42385 0.41381,-0.48312 0.75237,-1.16876 0.75237,-1.52365 0,-0.35489 0.65455,-1.2376 1.45455,-1.96159 0.8,-0.72399 1.45455,-1.72926 1.45455,-2.23393 0,-0.50468 0.24545,-1.02668 0.54545,-1.16001 0.3,-0.13334 1.03636,-0.95005 1.63636,-1.81492 5.77298,-8.32144 11.40719,-16.57813 12,-17.58548 0.4,-0.67971 1.54546,-2.36771 2.54546,-3.75112 1,-1.3834 2.14545,-3.07379 2.54545,-3.75641 0.95467,-1.6292 5.18952,-7.71557 9.78406,-14.06177 2.02715,-2.8 3.90883,-5.58182 4.18152,-6.18182 0.27269,-0.6 2.17449,-3.38181 4.22622,-6.18181 2.05172,-2.8 3.94219,-5.66364 4.20103,-6.36364 0.25883,-0.7 0.80815,-1.27273 1.22071,-1.27273 0.41255,0 0.7501,-0.34646 0.7501,-0.76992 0,-0.62868 3.68397,-5.85058 5.10072,-7.23008 0.2054,-0.2 1.65071,-2.24545 3.2118,-4.54545 1.56109,-2.3 3.11121,-4.18182 3.44473,-4.18182 0.33351,0 0.60638,-0.32564 0.60638,-0.72365 0,-0.398 2.04546,-3.34694 4.54546,-6.55319 2.5,-3.20626 5.36363,-6.94817 6.36363,-8.31536 14.24753,-19.47917 56.10635,-61.35641 70.19508,-70.22598 0.95306,-0.6 3.72296,-2.48181 6.15534,-4.18181 2.43238,-1.7 4.73951,-3.09091 5.12696,-3.09091 0.38744,0 0.70444,-0.28911 0.70444,-0.64245 0,-0.35335 0.57272,-0.8391 1.27272,-1.07945 0.7,-0.24035 2.58182,-1.26727 4.18182,-2.28204 1.6,-1.01478 3.4,-2.0597 4,-2.32205 0.6,-0.26235 1.25455,-0.68253 1.45455,-0.93372 0.43358,-0.54457 11.22041,-5.80536 16.36363,-7.98062 2,-0.84588 4.20465,-1.85376 4.89922,-2.23973 0.69458,-0.38597 1.6764,-0.70378 2.18182,-0.70624 0.50543,-0.002 1.79692,-0.46253 2.86997,-1.02236 1.07306,-0.55984 3.03669,-1.25349 4.36364,-1.54144 1.32694,-0.28795 2.57626,-0.74545 2.77626,-1.01665 0.33902,-0.45972 1.81915,-0.88691 11.27273,-3.2535 2,-0.50067 4.12727,-1.10096 4.72727,-1.33397 1.71076,-0.66436 13.34119,-3.03937 20.36364,-4.15838 5.37704,-0.85682 38.52711,-0.8139 43.99999,0.057 2.4,0.3819 5.67273,0.882 7.27273,1.11134 1.6,0.22934 3.23636,0.67682 3.63636,0.99439 0.4,0.31758 2.36364,0.81296 4.36364,1.10085 2,0.28789 3.96364,0.77243 4.36364,1.07674 0.4,0.30432 2.2,0.79095 4,1.0814 1.80002,0.29045 3.60002,0.78057 4.00002,1.08916 0.4,0.30858 1.8727,0.80028 3.2727,1.09266 1.4,0.29238 2.8727,0.78328 3.2727,1.09091 0.4,0.30762 1.7909,0.78674 3.0909,1.06471 1.3,0.27797 2.3637,0.80667 2.3637,1.17489 0,0.36822 0.5727,0.68059 1.2727,0.69416 0.7,0.0136 2.5818,0.65702 4.1818,1.42987 1.6,0.77286 3.4818,1.4163 4.1818,1.42987 0.7,0.0136 1.2728,0.35195 1.2728,0.75195 0,0.4 0.4091,0.73207 0.9091,0.73793 1.0843,0.0127 12.0626,5.50308 16.1818,8.09275 1.6,1.00589 4.4636,2.59759 6.3636,3.53711 1.9,0.93952 3.4546,1.97748 3.4546,2.30658 0,0.32909 0.3405,0.59836 0.7567,0.59836 0.6484,0 4.6931,2.5408 5.7887,3.63636 0.6433,0.64326 3.2252,2.16474 4.9091,2.89283 0.9,0.38914 1.6364,1.04291 1.6364,1.45281 0,0.4099 0.3366,0.74527 0.7481,0.74527 0.8654,0 9.3301,6.36629 13.07,9.82996 1.4,1.29659 2.9449,2.47891 3.4331,2.62737 2.8708,0.8731 29.6589,28.1864 38.3851,39.1377 1.6,2.00799 3.8091,4.61356 4.9091,5.79016 1.1,1.17661 2,2.44101 2,2.80978 0,0.36877 0.6546,1.26285 1.4546,1.98684 0.8,0.72399 1.4545,1.75654 1.4545,2.29454 0,0.53801 0.2729,0.97819 0.6064,0.97819 0.3335,0 1.8836,1.88182 3.4447,4.18182 1.5611,2.3 3.0095,4.34545 3.2186,4.54545 0.5408,0.51715 4.6219,6.69558 5.2843,8 0.3047,0.6 1.1229,1.95398 1.8182,3.00884 4.8969,7.42919 11.0515,18.0023 15.394,26.44571 1.0286,2 2.0897,3.80327 2.358,4.00728 0.2682,0.20401 0.7128,1.26764 0.9879,2.36364 0.2751,1.09599 0.7659,1.99271 1.0908,1.99271 0.3248,0 0.8063,0.98182 1.0698,2.18182 0.2636,1.2 0.7545,2.18182 1.0909,2.18182 0.3365,0 0.8274,0.98182 1.0909,2.18182 0.2636,1.2 0.7805,2.18182 1.1487,2.18182 0.3683,0 0.6695,0.34677 0.6695,0.77061 0,0.42383 1.3386,3.61474 2.9745,7.0909 3.668,7.79389 5.2555,11.2935 6.8256,15.04757 1.3258,3.16967 2.2443,5.20311 5.0714,11.22702 1.0207,2.17487 1.8558,4.23828 1.8558,4.58536 0,0.57278 1.1786,3.40906 4.0526,9.75208 0.5711,1.26045 1.0383,2.79568 1.0383,3.41162 0,0.61595 0.2902,1.29923 0.6448,1.51842 0.3547,0.21919 0.8604,1.5476 1.1239,2.95202 0.2635,1.40441 0.7915,2.55348 1.1734,2.55348 0.3818,0 0.6943,0.56641 0.6943,1.25867 0,1.14022 2.2667,7.63667 3.6293,10.40157 0.3021,0.61313 0.7962,2.23875 1.0979,3.61249 0.3018,1.37374 0.8343,3.08118 1.1834,3.79431 0.3492,0.71313 0.9397,1.91085 1.3123,2.66161 0.3727,0.75076 0.9007,2.55437 1.1734,4.00803 0.2727,1.45366 0.7671,2.81067 1.0986,3.01558 0.3316,0.2049 0.8226,1.83765 1.0911,3.62833 0.2685,1.79068 0.7362,3.25577 1.0392,3.25577 0.3031,0 0.7663,1.62292 1.0294,3.60648 0.2632,1.98356 0.7656,3.78392 1.1165,4.00081 0.3509,0.21689 0.863,2.02997 1.138,4.02908 0.2749,1.9991 0.7736,3.8039 1.1081,4.01065 0.3345,0.20675 0.833,2.17508 1.1078,4.37406 0.2747,2.19898 0.7579,4.15782 1.0737,4.35298 0.3157,0.19516 0.805,2.07266 1.0873,4.17221 0.2823,2.09955 0.7625,4.14464 1.0673,4.54464 0.3048,0.4 0.7909,2.36364 1.0803,4.36364 0.2894,2 0.7398,3.96363 1.0008,4.36363 0.2611,0.4 0.8838,2.93637 1.3838,5.63637 1.8652,10.07216 2.8338,14.758 3.2699,15.81818 0.2468,0.6 0.6188,2.23636 0.8267,3.63636 0.2079,1.4 0.9041,5.32727 1.5472,8.72727 0.643,3.4 1.559,8.96364 2.0354,12.36364 0.4764,3.4 1.0848,6.51614 1.3519,6.92475 0.2671,0.40861 0.718,4.33588 1.002,8.72727 0.284,4.39139 0.7636,8.31162 1.0658,8.71162 0.3021,0.4 0.7843,7.97175 1.0714,16.82613 0.4425,13.64404 0.3534,16.47192 -0.5845,18.54545 -0.6086,1.34563 -1.3392,3.26478 -1.6234,4.26478 -0.8703,3.06134 -3.2206,5.81818 -4.9602,5.81818 -0.8943,0 -2.672,-1.07922 -3.9505,-2.39826 z m -495.41536,-1.65916 c 0,-0.23159 1.63637,-2.30243 3.63637,-4.60188 2,-2.29945 3.63636,-4.46164 3.63636,-4.80486 0,-0.34323 1.30909,-2.17655 2.90909,-4.07406 1.6,-1.8975 2.90909,-3.66263 2.90909,-3.9225 0,-0.25987 2.04546,-2.86813 4.54546,-5.79613 2.5,-2.92801 6.34545,-7.5197 8.54545,-10.20376 2.2,-2.68406 4.9,-5.801 6,-6.92653 1.1,-1.12554 2,-2.28046 2,-2.56649 0,-0.28604 1.22727,-1.89248 2.72727,-3.56986 3.0702,-3.43327 4.14838,-4.73205 9.07431,-10.93105 3.33971,-4.20284 4.4935,-5.61706 9.27516,-11.36874 1.20779,-1.45281 2.19599,-2.99109 2.19599,-3.41841 0,-0.42732 0.41529,-1.03866 0.92286,-1.35853 0.50758,-0.31988 3.29714,-3.73885 6.19901,-7.59772 2.90188,-3.85887 5.75931,-7.41712 6.34986,-7.90723 0.59055,-0.49011 1.07372,-1.22484 1.07372,-1.63274 0,-0.4079 1.47273,-2.46548 3.27273,-4.5724 1.8,-2.10692 3.27272,-4.04182 3.27272,-4.29978 0,-0.25796 1.88182,-2.72981 4.18182,-5.493 2.3,-2.76319 6.47273,-7.85526 9.27273,-11.3157 11.06214,-13.67138 42.07559,-45.39938 44.37694,-45.39938 0.45323,0 1.61747,-0.84493 2.58719,-1.87762 4.53407,-4.82844 29.95089,-19.94057 33.5377,-19.94057 0.72399,0 1.31635,-0.31244 1.31635,-0.69431 0,-0.38188 1.14907,-0.90989 2.55348,-1.17336 1.40442,-0.26347 2.71523,-0.74073 2.91291,-1.06058 0.19767,-0.31985 1.66507,-0.80214 3.26088,-1.07175 1.59581,-0.26961 3.08613,-0.78899 3.31184,-1.15419 0.2257,-0.36519 1.35355,-0.66399 2.50634,-0.66399 1.15279,0 2.27929,-0.29661 2.50335,-0.65914 0.22405,-0.36252 2.12518,-0.89111 4.22474,-1.17464 2.09955,-0.28353 4.37363,-0.8078 5.05352,-1.16506 1.34993,-0.70933 17.44644,-2.19456 23.85475,-2.20108 6.47254,-0.007 21.36966,1.5514 22.13299,2.31473 0.38685,0.38685 1.25488,0.70337 1.92895,0.70337 1.48369,0 8.1583,1.983 11.3207,3.36334 1.26045,0.55016 2.815,1.0003 3.45455,1.0003 0.63954,0 1.16281,0.30127 1.16281,0.66949 0,0.36822 0.98209,0.88519 2.18243,1.14883 1.20034,0.26364 3.57307,1.22494 5.27273,2.13623 9.03911,4.84641 11.90981,6.4574 12.80421,7.18547 0.5427,0.44176 1.5853,1.14324 2.317,1.55886 8.3573,4.74734 24.6351,20.11467 32.3852,30.57385 2.3711,3.2 4.4752,6.14545 4.6756,6.54545 0.2005,0.4 1.9782,3.18182 3.9505,6.18182 4.0832,6.21092 7.5323,12.13078 8.1568,14 0.2338,0.7 0.6883,1.27272 1.0098,1.27272 0.3216,0 0.8003,0.98182 1.0639,2.18182 0.2636,1.2 0.7545,2.18182 1.0909,2.18182 0.3365,0 0.8274,0.98182 1.0909,2.18182 0.2636,1.2 0.7805,2.18182 1.1487,2.18182 0.3682,0 0.6695,0.34523 0.6695,0.76717 0,0.66461 0.9108,2.93162 3.6364,9.05101 0.6408,1.43877 3.0103,7.02813 4.4706,10.54545 0.4152,1 1.2155,2.74471 1.7785,3.87712 0.563,1.13242 1.0236,2.41908 1.0236,2.85926 0,0.77774 3.9517,11.34327 5.1313,13.71954 0.3231,0.65076 0.8105,2.37256 1.0832,3.82622 0.2727,1.45366 0.7671,2.81067 1.0987,3.01557 0.3315,0.20491 0.8225,1.83766 1.091,3.62833 0.2685,1.79068 0.7583,3.25578 1.0884,3.25578 0.33,0 0.8209,1.47273 1.0909,3.27273 0.2699,1.8 0.7437,3.27272 1.0529,3.27272 0.3091,0 0.7818,1.4651 1.0503,3.25578 0.2685,1.79067 0.7681,3.42875 1.1102,3.64017 0.3421,0.21142 0.8426,1.69006 1.1122,3.28587 0.2696,1.59581 0.789,3.08613 1.1542,3.31184 0.8707,0.53814 0.864,12.4787 -0.01,13.01721 -0.3693,0.2282 -0.896,1.47479 -1.1706,2.7702 -0.7819,3.68903 -3.6922,7.08257 -6.0739,7.08257 -1.9912,0 -7.357,-4.41445 -7.357,-6.05257 0,-0.39557 -0.771,-1.73194 -1.7135,-2.96969 -0.9424,-1.23776 -1.9448,-3.06865 -2.2275,-4.06865 -0.2827,-1 -0.7873,-2.47273 -1.1214,-3.27273 -2.1912,-5.24714 -2.8395,-7.01528 -3.9999,-10.90909 -0.7153,-2.4 -1.5646,-4.89607 -1.8875,-5.54683 -0.3229,-0.65076 -0.8101,-2.37255 -1.0829,-3.82621 -0.2727,-1.45366 -0.7575,-2.80476 -1.0773,-3.00244 -0.3199,-0.19768 -0.8022,-1.66507 -1.0718,-3.26088 -0.2696,-1.59581 -0.789,-3.08614 -1.1542,-3.31184 -0.3652,-0.2257 -0.666,-0.96378 -0.6684,-1.64017 0,-0.6764 -0.4812,-2.14363 -1.0638,-3.26053 -0.5825,-1.1169 -1.2722,-3.16596 -1.5325,-4.55349 -0.2603,-1.38752 -0.7634,-2.7021 -1.1181,-2.92129 -0.3546,-0.21919 -0.6448,-0.90248 -0.6448,-1.51842 0,-1.13297 -1.4022,-4.72157 -3.3172,-8.48956 -0.5755,-1.13242 -1.0464,-2.39472 -1.0464,-2.80512 0,-0.86484 -2.7518,-6.82422 -8.8361,-19.13594 -5.2232,-10.56934 -6.3974,-12.67595 -8.8786,-15.92893 -1.0569,-1.38571 -1.9217,-2.74135 -1.9217,-3.01252 0,-0.27118 -1.3091,-2.05662 -2.9091,-3.96764 -1.6,-1.91103 -2.9091,-3.83542 -2.9091,-4.27643 0,-1.44091 -20.6156,-21.61127 -25.0635,-24.52212 -7.51009,-4.91492 -16.09324,-9.4062 -19.33777,-10.11881 -1.17928,-0.25902 -2.14415,-0.77221 -2.14415,-1.14043 0,-0.36821 -0.79887,-0.66948 -1.77526,-0.66948 -0.9764,0 -1.9546,-0.29017 -2.17379,-0.64483 -0.21919,-0.35465 -1.62941,-0.87485 -3.13383,-1.15599 -1.50442,-0.28114 -3.06718,-0.78514 -3.47281,-1.12 -0.85519,-0.70599 -8.22259,-1.96159 -17.08068,-2.911 -6.4539,-0.69173 -22.37769,-0.18781 -23.63636,0.74799 -0.4,0.29739 -2.69091,0.77627 -5.09091,1.06418 -2.4,0.2879 -4.69091,0.77652 -5.09091,1.08582 -0.4,0.30929 -1.99483,0.79105 -3.54407,1.07057 -1.54925,0.27952 -3.34925,0.78559 -4,1.1246 -2.17426,1.13267 -6.48737,2.92048 -7.04569,2.92048 -1.91045,0 -22.54515,11.18818 -27.40321,14.85808 -1.09614,0.82805 -3.99126,2.97828 -6.43359,4.77828 -2.44233,1.8 -7.05117,5.56363 -10.24187,8.36363 -3.19069,2.8 -7.33194,6.28583 -9.20277,7.74627 -4.95015,3.86429 -30.95132,30.58204 -41.94697,43.10301 -13.61408,15.50263 -18.22592,20.50993 -30.53259,33.15072 -13.11678,13.47289 -45.58581,44.96797 -47.53042,46.10468 -6.12434,3.57996 -8.11881,4.47811 -8.11881,3.65608 z M 269.67873,957.99995 c -0.20215,-8.17072 0.20999,-16.43319 0.86157,-17.27273 0.31045,-0.4 0.80251,-1.8393 1.09348,-3.19845 0.77138,-3.60332 5.95217,-13.64193 9.39103,-18.19666 5.38775,-7.13599 21.13042,-21.87761 23.36325,-21.87761 0.32357,0 1.10498,-0.46115 1.73648,-1.02478 1.49012,-1.32998 8.03831,-4.79208 9.07467,-4.79788 0.44043,-0.002 1.74407,-0.49643 2.897,-1.0977 1.15292,-0.60128 3.44383,-1.29848 5.09091,-1.54936 1.64707,-0.25087 3.45407,-0.82054 4.01555,-1.26593 1.39967,-1.11029 27.55754,-1.12058 28.27838,-0.0111 0.28541,0.43927 1.8751,1.01031 3.53264,1.26898 3.31947,0.51801 14.56399,6.01826 20.25902,9.90967 5.32877,3.64116 12.40454,10.58029 16.70897,16.38631 3.75178,5.06058 9.91351,16.92061 10.95753,21.09091 1.2658,5.0562 0.49747,13.14979 -1.58233,16.66826 -0.7899,1.33631 -0.93455,1.34351 -3.40829,0.16965 -3.18307,-1.51047 -6.8878,-5.74955 -9.45754,-10.82165 -8.48562,-16.74874 -16.69053,-25.87994 -28.77402,-32.02245 -2.17061,-1.1034 -4.30401,-2.29288 -4.74089,-2.64329 -0.43689,-0.35041 -1.93979,-0.87632 -3.33979,-1.1687 -1.4,-0.29238 -2.90955,-0.82381 -3.35456,-1.18095 -2.25003,-1.80581 -26.59397,-1.84939 -28.88459,-0.0517 -0.46847,0.36765 -1.83358,0.89553 -3.03358,1.17306 -2.91167,0.67339 -6.18182,2.1148 -6.18182,2.7248 0,0.27057 -0.98182,0.7076 -2.18182,0.97116 -1.2,0.26356 -2.18181,0.70059 -2.18181,0.97116 0,0.27057 -0.92689,0.90223 -2.05976,1.40369 -5.53777,2.45125 -19.54781,14.30349 -25.50876,21.57994 -2.91679,3.56048 -8.09392,14.21424 -8.5601,17.61539 -0.24099,1.75824 -0.71973,3.37082 -1.06387,3.5835 -0.34413,0.21269 -0.62569,2.16739 -0.62569,4.34379 0,3.03255 -0.25488,3.95707 -1.09091,3.95707 -0.86386,0 -1.11993,-1.17308 -1.23035,-5.63636 z m 320.86669,3.86678 c 1.8,-1.04331 4.09091,-2.29256 5.09091,-2.77614 1,-0.48357 1.98182,-1.04951 2.18182,-1.25766 0.5899,-0.61391 3.11184,-2.14569 5.45455,-3.31299 2.14957,-1.07108 4.27518,-2.34008 5.77848,-3.44979 0.42183,-0.31139 3.51535,-2.6023 6.87449,-5.09091 3.35913,-2.48861 6.82916,-5.01565 7.71116,-5.61565 2.74242,-1.86559 12.54031,-10.22073 20.89498,-17.81818 4.39867,-4 9.35118,-8.29732 11.00559,-9.54959 4.14834,-3.14001 19.72427,-19.34506 28.25619,-29.39747 10.81077,-12.73737 11.4791,-13.55744 11.4791,-14.08518 0,-0.27047 0.81818,-1.25002 1.81818,-2.17679 1,-0.92677 1.81818,-1.91215 1.81818,-2.18974 0,-0.70317 4.52835,-6.47397 5.63637,-7.18282 0.5,-0.31988 0.90909,-0.92718 0.90909,-1.34956 0,-0.42238 0.73636,-1.65435 1.63636,-2.73771 0.9,-1.08336 2.21016,-2.76697 2.91146,-3.74135 0.70131,-0.97439 3.31949,-4.61008 5.81819,-8.07933 2.49869,-3.46924 5.03399,-7.02442 5.63399,-7.9004 0.6,-0.87598 1.90909,-2.69637 2.90909,-4.04531 1,-1.34895 3.06461,-4.17559 4.58801,-6.28142 7.10846,-9.82613 19.7376,-26.56146 21.30514,-28.23221 0.95877,-1.02189 1.74321,-2.18793 1.74321,-2.59121 0,-0.40328 0.98182,-1.67387 2.18182,-2.82354 1.2,-1.14968 2.18182,-2.34303 2.18182,-2.6519 0,-0.30887 0.8184,-1.47491 1.81868,-2.59121 1.00027,-1.11629 3.31231,-3.82962 5.13787,-6.02962 16.16474,-19.48036 23.00227,-27.01293 39.26145,-43.25243 14.6947,-14.67692 22.63001,-21.87766 31.27945,-28.38393 1.06353,-0.8 3.00488,-2.35454 4.31412,-3.45454 1.30925,-1.1 2.73007,-2 3.15739,-2 0.42731,0 1.03865,-0.42986 1.35853,-0.95524 0.48247,-0.79244 5.02788,-3.84715 11.02368,-7.4084 0.67345,-0.4 2.20088,-1.38182 3.3943,-2.18182 3.91204,-2.62241 4.96343,-3.19467 15.34425,-8.35175 5.64935,-2.80654 10.8039,-5.10279 11.45455,-5.10279 0.65064,0 1.18299,-0.27412 1.18299,-0.60915 0,-0.33503 1.88182,-1.22185 4.18182,-1.9707 2.3,-0.74885 4.50909,-1.5909 4.90909,-1.87122 0.4,-0.28033 1.95816,-0.7397 3.46258,-1.02084 1.50442,-0.28114 2.90295,-0.78243 3.10786,-1.11397 0.20491,-0.33155 1.91947,-0.82705 3.81015,-1.10113 1.89068,-0.27408 3.76487,-0.70208 4.16487,-0.95111 1.09938,-0.68446 8.77676,-2.27006 14.90909,-3.07915 3,-0.39581 6.4838,-1.0392 7.74178,-1.42974 2.88535,-0.89576 35.75868,-0.95114 36.88076,-0.0621 0.4576,0.36255 3.28654,0.8926 6.28654,1.17789 3,0.28529 5.78182,0.77684 6.18182,1.09233 0.4,0.31549 2.27419,0.79744 4.16487,1.07101 1.89067,0.27357 3.61057,0.77729 3.82199,1.11937 0.21142,0.34209 1.69006,0.84256 3.28587,1.11217 1.59581,0.26961 3.08613,0.789 3.31184,1.15419 0.2257,0.3652 0.91432,0.66399 1.53026,0.66399 2.02587,0 22.91455,10.03815 26.86295,12.9091 1.2377,0.9 2.4997,1.63636 2.8044,1.63636 0.3047,0 1.7936,0.98182 3.3087,2.18182 1.5152,1.2 3.0013,2.18181 3.3025,2.18181 0.3013,0 1.9456,1.14546 3.6541,2.54546 1.7085,1.4 3.3389,2.54545 3.6231,2.54545 0.2842,0 1.8655,1.17447 3.514,2.60992 1.6485,1.43546 4.7587,4.13546 6.9115,6 8.1854,7.08916 20.1509,19.56648 27.3127,28.48099 1.4461,1.8 4.4207,5.45766 6.6102,8.12813 2.1896,2.67048 3.981,5.06994 3.981,5.33215 0,0.26221 1.1455,1.87462 2.5455,3.58313 1.4,1.70852 2.5454,3.35311 2.5454,3.65465 0,0.30154 1.2273,2.11709 2.7273,4.03456 1.5,1.91747 3.3818,4.57102 4.1818,5.89679 0.8,1.32576 2.028,3.24014 2.7288,4.25417 0.7008,1.01403 1.7694,2.82551 2.3745,4.02551 1.3164,2.61042 2.7402,4.95429 3.3134,5.45454 0.2292,0.2 0.6425,0.85455 0.9185,1.45455 0.276,0.6 1.3548,2.56364 2.3973,4.36364 5.2791,9.1146 14.788,27.68556 14.8023,28.90909 0.01,0.5 0.3025,0.90909 0.6591,0.90909 0.3566,0 0.8614,0.84847 1.1217,1.88548 0.2602,1.03702 1.2545,3.50505 2.2094,5.48452 0.9549,1.97947 1.9489,4.56737 2.2089,5.75088 0.2599,1.18351 0.7739,2.15184 1.1421,2.15184 0.3682,0 0.6715,0.57273 0.6739,1.27273 0,0.7 0.4934,2.21014 1.091,3.35586 0.5975,1.14572 1.0884,2.45481 1.0909,2.90909 0,0.45428 0.4625,1.70391 1.0223,2.77697 0.5599,1.07306 1.254,3.02595 1.5426,4.33976 0.2885,1.31382 0.8103,2.97223 1.1594,3.68536 0.3492,0.71313 0.9397,1.91085 1.3123,2.66161 0.3727,0.75076 0.9007,2.55437 1.1734,4.00803 0.2727,1.45366 0.7575,2.80476 1.0774,3.00244 0.3198,0.19767 0.8021,1.66507 1.0717,3.26088 0.2696,1.59581 0.7795,3.08027 1.1331,3.29881 0.3536,0.21853 0.8592,2.02759 1.1235,4.02013 0.2643,1.99254 0.7552,3.79254 1.0909,4 0.3357,0.20746 0.8256,2.00012 1.0888,3.98368 0.2631,1.98356 0.7314,3.60647 1.0406,3.60647 0.3091,0 0.79,1.96363 1.0686,4.36363 0.2785,2.4 0.7755,4.36364 1.1044,4.36364 0.3289,0 0.8263,2.13182 1.1053,4.73738 0.279,2.60556 0.7683,4.89866 1.0872,5.09577 0.3189,0.1971 0.8097,2.81074 1.0906,5.80807 0.2808,2.99733 0.7647,5.44969 1.0753,5.44969 0.3105,0 0.8,3.02727 1.0877,6.72727 0.2877,3.7 0.7315,7.05455 0.9863,7.45455 0.5241,0.82295 2.162,14.00442 2.7436,22.08026 0.289,4.01214 0.052,6.42438 -0.9474,9.63015 -0.7332,2.35243 -1.5525,4.27995 -1.8207,4.28337 -0.2682,0.003 -0.7033,0.98803 -0.9669,2.18803 -0.7306,3.3265 -3.8828,3.02629 -7.6363,-0.72727 -1.6,-1.6 -2.9164,-3.31818 -2.9253,-3.81818 -0.01,-0.5 -0.6562,-1.72727 -1.4384,-2.72727 -0.7822,-1 -1.4294,-2.52728 -1.4383,-3.39394 -0.01,-0.86667 -0.3345,-1.68485 -0.7235,-1.81819 -0.389,-0.13333 -0.9245,-2.69696 -1.19,-5.69696 -0.2655,-3 -0.727,-5.78182 -1.0256,-6.18182 -0.2986,-0.4 -0.7785,-4.32727 -1.0665,-8.72727 -0.288,-4.4 -0.7725,-8.32728 -1.0767,-8.72728 -0.3041,-0.4 -0.7624,-3.32502 -1.0184,-6.50006 -0.256,-3.17503 -0.7727,-6.77503 -1.1481,-8 -0.6006,-1.9596 -1.3157,-5.47631 -2.6711,-13.1363 -0.2124,-1.2 -0.5853,-2.67273 -0.8288,-3.27273 -0.4125,-1.01649 -0.7886,-2.5517 -3.207,-13.0909 -0.5048,-2.2 -1.1295,-4.16364 -1.3883,-4.36364 -0.2587,-0.2 -0.6983,-1.91055 -0.9769,-3.80123 -0.2787,-1.89068 -0.7865,-3.61057 -1.1286,-3.82199 -0.3421,-0.21142 -0.8426,-1.69006 -1.1122,-3.28587 -0.2696,-1.59581 -0.7605,-3.06854 -1.0909,-3.27273 -0.3304,-0.20419 -0.8213,-1.67692 -1.0909,-3.27273 -0.2696,-1.5958 -0.7701,-3.07444 -1.1122,-3.28586 -0.342,-0.21142 -0.8416,-1.8495 -1.1102,-3.64018 -0.2685,-1.79067 -0.7783,-3.25577 -1.1329,-3.25577 -0.3546,0 -0.6467,-0.57273 -0.6492,-1.27273 0,-0.7 -0.4933,-2.21014 -1.0909,-3.35586 -0.5975,-1.14572 -1.0864,-2.40535 -1.0864,-2.79918 0,-0.39382 -0.5343,-1.91096 -1.1873,-3.37141 -0.6531,-1.46045 -1.8358,-4.1281 -2.6283,-5.92809 -0.7925,-1.8 -2.7128,-5.94077 -4.2672,-9.2017 -1.5545,-3.26093 -2.8263,-6.2882 -2.8263,-6.72727 0,-0.43907 -0.3013,-0.79831 -0.6695,-0.79831 -0.3682,0 -0.8851,-0.98181 -1.1487,-2.18181 -0.2635,-1.2 -0.7544,-2.18182 -1.0909,-2.18182 -0.3364,0 -0.8273,-0.98182 -1.0909,-2.18182 -0.2636,-1.2 -0.7545,-2.18182 -1.0909,-2.18182 -0.3364,0 -0.8273,-0.98182 -1.0909,-2.18182 -0.2636,-1.2 -0.7423,-2.18182 -1.0639,-2.18182 -0.3215,0 -0.7946,-0.57272 -1.0512,-1.27272 -0.7362,-2.0082 -2.6087,-5.28823 -5.6345,-9.86961 -1.5377,-2.32829 -2.7959,-4.40504 -2.7959,-4.61501 0,-0.20996 -0.7363,-1.4073 -1.6363,-2.66075 -0.9,-1.25345 -1.9637,-2.83751 -2.3637,-3.52013 -0.4,-0.68262 -1.9433,-2.98032 -3.4296,-5.106 -1.4863,-2.12567 -3.6312,-5.20947 -4.7665,-6.85288 -1.1353,-1.64341 -3.189,-4.42523 -4.5639,-6.18182 -1.3749,-1.75659 -2.7407,-3.52107 -3.0352,-3.92107 -8.8098,-11.96779 -27.6858,-31.22858 -38.3626,-39.14452 -2.6024,-1.92949 -4.8997,-3.75336 -5.1051,-4.05305 -0.2054,-0.29969 -0.8643,-0.77931 -1.4643,-1.06582 -1.6914,-0.80768 -3.815,-2.12756 -6.3421,-3.94186 -3.5094,-2.51947 -20.60297,-11.06748 -22.13187,-11.06748 -0.73933,0 -1.34425,-0.32727 -1.34425,-0.72727 0,-0.4 -0.57272,-0.72929 -1.27272,-0.73175 -0.7,-0.002 -2.17098,-0.47306 -3.26885,-1.04577 -1.09786,-0.5727 -3.47461,-1.263 -5.28167,-1.53398 -1.80705,-0.27099 -3.44553,-0.75155 -3.64106,-1.06792 -0.19552,-0.31637 -2.07332,-0.80616 -4.17287,-1.08842 -2.09955,-0.28227 -4.16147,-0.78997 -4.58204,-1.12824 -0.77915,-0.62668 -16.93076,-2.20931 -22.87169,-2.2411 -5.76206,-0.0308 -24.30443,1.63969 -25.07461,2.25904 -0.40897,0.32886 -2.78903,0.83016 -5.28903,1.11399 -2.5,0.28383 -4.54545,0.77404 -4.54545,1.08935 0,0.3153 -1.55455,0.80471 -3.45455,1.08756 -1.9,0.28285 -3.78181,0.77313 -4.18181,1.0895 -0.4,0.31638 -1.81296,0.80751 -3.1399,1.0914 -1.32695,0.28389 -3.29058,0.97421 -4.36364,1.53404 -1.07305,0.55984 -2.36454,1.0199 -2.86997,1.02237 -0.50543,0.002 -1.48724,0.32027 -2.18182,0.70624 -2.27623,1.26489 -8.07535,3.66187 -8.85932,3.66187 -0.42194,0 -0.76717,0.32727 -0.76717,0.72727 0,0.4 -0.40909,0.73142 -0.90909,0.73649 -1.05851,0.0107 -9.05303,3.98021 -10.69779,5.31172 -0.61622,0.49886 -2.59312,1.68023 -4.39312,2.62527 -1.8,0.94505 -4.31453,2.48922 -5.58784,3.43149 -1.27331,0.94227 -2.53531,1.71322 -2.80443,1.71322 -0.26913,0 -1.72897,0.98181 -3.24409,2.18181 -1.51513,1.2 -2.98771,2.18182 -3.2724,2.18182 -0.2847,0 -1.54669,0.83205 -2.80444,1.84901 -1.25774,1.01695 -2.94135,2.33143 -3.74135,2.92107 -18.6659,13.75759 -45.99258,40.64363 -69.44055,68.32083 -2.03327,2.4 -4.83184,5.62119 -6.21906,7.15821 -1.38721,1.53701 -2.5222,3.02514 -2.5222,3.30694 0,0.28181 -1.30909,1.79067 -2.90909,3.35303 -1.6,1.56236 -2.90909,3.13089 -2.90909,3.48564 0,0.35474 -0.78264,1.5156 -1.73921,2.57967 -4.87986,5.42833 -6.98806,7.97954 -6.98806,8.45652 0,0.29005 -1.8,2.57758 -4,5.08342 -2.2,2.50583 -4,4.79106 -4,5.07828 0,0.28722 -1.63637,2.40359 -3.63637,4.70304 -2,2.29945 -3.63636,4.4235 -3.63636,4.72011 0,0.29662 -1.64683,2.56214 -3.65962,5.03449 -8.31043,10.20789 -10.88583,13.55446 -10.88583,14.14545 0,0.34268 -0.98182,1.5637 -2.18182,2.71338 -1.2,1.14967 -2.18182,2.34507 -2.18182,2.65644 0,0.31137 -0.9,1.54328 -2,2.73758 -1.1,1.19429 -2.98182,3.50331 -4.18182,5.13115 -1.2,1.62784 -3.16363,4.08219 -4.36363,5.45412 -1.2,1.37192 -3.98182,4.66274 -6.18182,7.31292 -7.68857,9.26188 -37.15783,38.16233 -38.91343,38.16233 -0.25915,0 -1.41537,0.9 -2.56938,2 -1.15401,1.1 -3.63015,3.14545 -5.50252,4.54545 -1.87238,1.4 -3.95281,3.03637 -4.62319,3.63637 -1.82257,1.63122 -5.72463,4.36363 -6.23155,4.36363 -0.24444,0 -1.99693,1.30909 -3.89444,2.90909 -1.8975,1.6 -3.70912,2.90909 -4.02582,2.90909 -0.31669,0 -1.81545,0.98182 -3.33058,2.18182 -1.51512,1.2 -2.98442,2.18182 -3.26511,2.18182 -0.28069,0 -1.53808,0.73636 -2.7942,1.63636 -1.25612,0.9 -2.943,2.00601 -3.74863,2.4578 -10.7926,6.05238 -18.47297,9.92185 -21.46478,10.81426 -1,0.29828 -2.23439,0.87552 -2.74308,1.28276 -0.5087,0.40724 -4.1087,0.88674 -8,1.06556 l -7.0751,0.32513 z m 260.90138,0.86049 c 0.39371,-0.5 0.908,-2.38182 1.14286,-4.18182 0.38559,-2.9552 1.46653,-5.95073 3.49656,-9.68971 0.39598,-0.72934 1.38979,-2.61116 2.20847,-4.18182 0.81867,-1.57065 1.74455,-2.85574 2.05751,-2.85574 0.31296,0 0.77606,-0.57272 1.0291,-1.27272 0.55435,-1.53351 1.92873,-3.84665 3.14872,-5.29942 0.49153,-0.58532 2.78244,-3.3417 5.09091,-6.12528 9.14532,-11.02757 21.63336,-22.0392 28.47401,-25.10764 0.95224,-0.42714 2.60857,-1.40125 3.68072,-2.16469 1.07216,-0.76344 2.82941,-1.60895 3.90502,-1.87891 1.0756,-0.26996 1.95564,-0.7678 1.95564,-1.10631 0,-0.33851 1.14907,-0.83105 2.55348,-1.09452 1.40442,-0.26347 2.72114,-0.7503 2.92605,-1.08184 0.2049,-0.33154 1.91947,-0.82664 3.81014,-1.1002 1.89068,-0.27357 3.79836,-0.78336 4.2393,-1.13286 0.44094,-0.3495 2.89548,-0.82496 5.45455,-1.05656 2.55906,-0.23161 5.33374,-0.74817 6.16595,-1.14792 2.57877,-1.23868 22.46034,0.52355 24.57271,2.17804 0.4528,0.35465 1.80509,0.87751 3.00509,1.16192 6.7731,1.60526 23.63636,13.06884 23.63636,16.06792 0,0.4491 0.75054,1.52164 1.66787,2.38343 0.91734,0.86178 2.47188,3.20465 3.45455,5.20637 0.98267,2.00172 2.03212,3.64457 2.33212,3.65079 0.3,0.006 0.54546,0.53111 0.54546,1.16641 0,0.6353 0.98182,3.27632 2.18182,5.86892 1.2,2.59261 2.18181,4.88699 2.18181,5.09863 0,0.39189 1.65529,4.28396 3.16507,7.442 1.06725,2.2323 1.07935,8.7818 0.0206,11.05252 -3.99243,8.56206 -4.29851,9.02175 -6.15059,9.23717 -1.43694,0.16713 -2.58196,-0.55002 -4.90909,-3.07466 -1.66928,-1.81095 -3.03505,-3.63372 -3.03505,-4.05061 0,-0.41688 -0.77037,-1.97874 -1.71193,-3.47079 -0.94156,-1.49205 -1.94395,-3.53101 -2.22753,-4.53101 -0.28357,-1 -0.80442,-2.47272 -1.15744,-3.27272 -0.35302,-0.8 -1.33792,-3.09091 -2.18867,-5.09091 -0.85075,-2 -2.06369,-4.78182 -2.69541,-6.18182 -1.72655,-3.8263 -11.70598,-13.51714 -14.56447,-14.14328 -1.3,-0.28476 -2.36364,-0.80418 -2.36364,-1.15428 0,-0.35009 -1.14906,-0.8521 -2.55348,-1.11557 -1.40442,-0.26347 -2.72348,-0.75408 -2.93124,-1.09025 -0.20777,-0.33617 -2.33875,-0.83308 -4.73552,-1.10425 -2.39677,-0.27116 -4.53338,-0.77719 -4.74804,-1.12451 -0.21466,-0.34732 -4.11529,-0.63149 -8.66808,-0.63149 -4.55278,0 -8.45342,0.28417 -8.66807,0.63149 -0.21466,0.34732 -2.35128,0.85335 -4.74805,1.12451 -2.39677,0.27117 -4.55068,0.80518 -4.78647,1.18669 -0.23579,0.38152 -1.08189,0.69367 -1.88023,0.69367 -1.36564,0 -4.98196,1.41028 -10.82627,4.222 -3.0596,1.47198 -17.66003,10.98007 -20.72727,13.498 -1.2,0.98509 -3.90221,3.21018 -6.0049,4.94463 -4.91651,4.05549 -24.17692,23.16109 -24.17692,23.9826 0,0.34402 -0.53098,0.62549 -1.17996,0.62549 -0.8409,0 -0.97426,-0.26122 -0.4641,-0.90909 z"
       id="path1" />
  </g>
</svg>
