<svg viewBox="17.599998474121094 53.43829345703125 225.94406127929688 56.16168212890625"
  xmlns="http://www.w3.org/2000/svg">
  <g>
    <path
      d="m 23.04,109.11988 v -0.48011 l 107.56,0.0401 107.56,0.0401 0.0506,0.44 0.0506,0.44 H 130.65063 23.04 Z m 5.391588,-1.50952 c -3.595112,-1.03628 -5.692471,-4.88845 -4.595418,-8.440292 0.593868,-1.922721 1.814203,-3.316086 3.661321,-4.180457 1.933015,-0.904567 4.671353,-0.728021 6.33608,0.408498 0.75131,0.512924 1.671225,1.424956 2.045942,2.028409 l 0.339362,0.546516 0.250562,-0.385079 c 0.880291,-1.352884 2.17348,-2.356244 3.703831,-2.87373 0.83038,-0.280792 1.291729,-0.334743 2.412414,-0.282114 1.200186,0.05636 1.544822,0.143725 2.574485,0.652613 1.456302,0.719743 2.505233,1.791321 3.210236,3.279545 0.47214,0.996663 0.509597,1.199218 0.509597,2.755731 0,1.55909 -0.03695,1.75801 -0.513378,2.76381 -0.674426,1.42381 -1.939002,2.68839 -3.36281,3.36281 -1.009092,0.47799 -1.199636,0.51305 -2.763812,0.50856 -1.538559,-0.004 -1.767559,-0.0463 -2.72,-0.497 -1.174482,-0.55583 -2.365353,-1.54546 -2.89925,-2.40932 l -0.359625,-0.58189 -0.250088,0.38652 c -0.641807,0.99192 -1.723304,1.94452 -2.826844,2.48992 -1.018887,0.50356 -1.341347,0.58272 -2.574486,0.63205 -0.888666,0.0356 -1.693719,-0.0255 -2.178119,-0.1651 z m 3.589372,-3.25832 c 3.393864,-1.77298 2.065512,-6.990836 -1.770514,-6.954703 -2.098787,0.01977 -3.683418,1.621285 -3.683418,3.722663 0,2.83713 2.909454,4.56129 5.453932,3.23204 z m -2.862423,-1.31117 c -1.066693,-0.65037 -1.418386,-1.80268 -0.878288,-2.87768 0.429419,-0.854705 1.239893,-1.326576 2.135417,-1.243272 1.229891,0.114408 2.065086,1.014569 2.063736,2.224262 -0.0012,1.10618 -1.122084,2.21463 -2.239402,2.21463 -0.308,0 -0.794658,-0.14308 -1.081463,-0.31794 z m 14.61413,1.45568 c 1.365621,-0.62023 2.137912,-1.85762 2.143819,-3.4349 0.01106,-2.953253 -3.267082,-4.690066 -5.750427,-3.046666 -1.861961,1.232187 -2.171535,4.043566 -0.623614,5.663316 1.033695,1.08167 2.868719,1.43661 4.230222,0.81825 z m -2.489478,-1.4168 c -1.699638,-0.85392 -1.683443,-3.084037 0.02887,-3.97495 1.844449,-0.959667 3.935881,1.31373 2.84881,3.09666 -0.650371,1.0667 -1.802677,1.41839 -2.877675,0.87829 z m 21.417349,4.40132 c -4.745801,-1.66459 -6.122991,-7.656841 -2.561127,-11.143643 0.512765,-0.501959 1.32,-1.070533 1.930866,-1.36 0.969826,-0.459565 1.177592,-0.497132 2.729723,-0.493575 1.36914,0.0031 1.848801,0.07134 2.592261,0.368601 0.971074,0.388265 2.299959,1.475879 3.023249,2.474352 l 0.439663,0.606937 0.493139,-0.716753 c 1.132138,-1.645507 3.008966,-2.67765 5.066306,-2.786166 2.099475,-0.110738 3.568715,0.431921 5.072771,1.87361 1.393968,1.336166 2.027124,2.84103 2.030712,4.826527 0.0081,4.49028 -4.31735,7.71241 -8.605034,6.41006 -1.345839,-0.40878 -2.833037,-1.45449 -3.549444,-2.49575 l -0.50845,-0.73901 -0.441365,0.60687 c -0.6988,0.96084 -1.729418,1.80291 -2.846252,2.32554 -1.455491,0.68111 -3.347578,0.77534 -4.867018,0.2424 z m 3.395586,-2.86316 c 0.826034,-0.27657 1.529734,-0.86854 2.01325,-1.6936 0.357221,-0.60955 0.435762,-0.93551 0.432401,-1.79458 -0.0086,-2.202214 -1.559397,-3.742406 -3.754795,-3.729151 -2.478563,0.01496 -4.209307,2.432171 -3.481291,4.862071 0.248106,0.82811 1.166433,1.87268 1.965382,2.23557 0.736995,0.33476 2.020311,0.38912 2.825053,0.11969 z m -2.189695,-1.48533 c -1.104082,-0.48072 -1.609203,-1.85034 -1.080261,-2.9291 1.056591,-2.154872 4.213832,-1.472512 4.213832,0.91072 0,0.87186 -0.407896,1.55817 -1.153626,1.94103 -0.691152,0.35484 -1.288971,0.3782 -1.979945,0.0774 z m 14.636809,1.24581 c 2.719958,-1.35541 2.667268,-5.296572 -0.08865,-6.630688 -2.451169,-1.186591 -5.319734,0.60923 -5.331077,3.337438 -0.01174,2.82243 2.861265,4.56818 5.419724,3.29325 z m -2.691865,-1.29864 c -1.117882,-0.57002 -1.568124,-1.85774 -1.019751,-2.91656 1.152282,-2.224867 4.378419,-1.323957 4.161208,1.16203 -0.138071,1.58024 -1.734592,2.47191 -3.141457,1.75453 z m 28.241217,4.42372 c -1.74586,-0.6004 -3.29209,-1.98259 -4.06693,-3.63544 C 99.641952,103.04949 99.6,102.77832 99.6,101.11664 c 0,-1.758717 0.02381,-1.89097 0.51854,-2.880002 1.23338,-2.465725 3.42815,-3.836636 6.14231,-3.836636 2.01998,0 4.04599,1.014592 5.27406,2.641159 l 0.67076,0.888406 0.27156,-0.446546 c 0.52209,-0.858513 1.78832,-1.958865 2.82167,-2.452039 1.92906,-0.920657 4.43043,-0.811287 6.26993,0.274147 4.13233,2.438361 4.46592,8.265291 0.64022,11.182811 -3.07859,2.34776 -7.51854,1.52613 -9.74741,-1.80378 l -0.25836,-0.38599 -0.57006,0.77092 c -0.31354,0.424 -0.70858,0.88704 -0.87786,1.02898 -1.93235,1.62019 -4.47727,2.15699 -6.66277,1.4054 z m 3.67634,-3.00525 c 2.20663,-1.00228 2.83947,-4.01768 1.22042,-5.815177 -1.78756,-1.984583 -4.93065,-1.607586 -6.1452,0.737085 -0.52122,1.006212 -0.48358,2.531452 0.0865,3.504182 0.47575,0.81182 1.27154,1.50065 1.97897,1.71299 0.79693,0.23921 2.17395,0.17223 2.85933,-0.13908 z m -2.61689,-1.43315 c -0.74458,-0.39703 -1.14984,-1.08223 -1.15039,-1.94507 -0.001,-2.375952 3.10572,-3.082682 4.20673,-0.95681 0.96615,1.86549 -1.17946,3.90267 -3.05634,2.90188 z m 14.4131,1.51918 c 2.33478,-0.9784 3.06672,-3.96115 1.43875,-5.863069 -0.76201,-0.890239 -1.64456,-1.313923 -2.75087,-1.320602 -1.59945,-0.0097 -2.78132,0.739093 -3.47169,2.199423 -0.48772,1.031658 -0.48802,2.007118 -9.4e-4,3.039998 0.43131,0.91461 0.88923,1.38374 1.78872,1.8325 0.75005,0.3742 2.23735,0.42967 2.99603,0.11175 z m -2.4257,-1.4889 c -1.54933,-0.78885 -1.51177,-3.328699 0.0589,-3.984976 1.88124,-0.786031 3.67094,0.753143 3.09826,2.664566 -0.37904,1.26512 -1.96393,1.92795 -3.15718,1.32041 z m 21.93006,4.49472 c -0.46777,-0.12589 -1.16768,-0.41476 -1.55535,-0.64195 -0.95522,-0.5598 -2.27679,-2.03715 -2.78037,-3.10812 -0.37018,-0.78727 -0.41378,-1.07425 -0.41378,-2.72336 0,-1.753819 0.0251,-1.894337 0.51653,-2.89259 0.65047,-1.321289 1.86519,-2.529864 3.23297,-3.216605 0.99811,-0.50114 1.13844,-0.527443 2.81386,-0.527443 1.66476,0 1.82222,0.02897 2.81572,0.51807 1.05145,0.51763 2.175,1.456416 2.82678,2.36193 l 0.34549,0.48 0.43607,-0.56 c 0.78327,-1.005878 1.70731,-1.769555 2.76937,-2.288754 0.97982,-0.478996 1.15016,-0.510025 2.80321,-0.510616 1.63573,-5.86e-4 1.83363,0.03427 2.80286,0.493585 2.69062,1.275092 4.35,4.336673 3.85956,7.120953 -0.33847,1.92154 -1.34601,3.53576 -2.83106,4.53577 -3.08473,2.07723 -7.16423,1.38411 -9.26782,-1.57463 l -0.52404,-0.73707 -0.66919,0.8674 c -1.67509,2.17122 -4.51347,3.12123 -7.18081,2.40343 z m 3.41943,-3.09185 c 2.20888,-1.0033 2.84754,-4.01219 1.23134,-5.801129 -0.80683,-0.893056 -1.65233,-1.289089 -2.7521,-1.289089 -1.49653,0 -2.73446,0.73046 -3.41002,2.012126 -0.51808,0.982922 -0.48158,2.524632 0.0826,3.487292 0.42562,0.72627 1.22845,1.45062 1.91167,1.72478 0.63962,0.25668 2.23691,0.1838 2.93653,-0.13398 z m -2.33431,-1.26097 c -0.93974,-0.44903 -1.43479,-1.17843 -1.43402,-2.11285 0.002,-2.169988 2.63425,-3.063569 3.98107,-1.351363 1.07355,1.364793 0.14834,3.374053 -1.62269,3.523983 -0.37344,0.0316 -0.7894,0.005 -0.92436,-0.0598 z m 14.13052,1.347 c 1.80745,-0.75742 2.78784,-2.92435 2.11736,-4.679971 -1.19394,-3.126293 -5.29213,-3.404008 -6.85124,-0.464277 -0.4726,0.891108 -0.46902,2.473598 0.008,3.379878 0.38189,0.72607 1.13923,1.43382 1.8811,1.75791 0.62989,0.27517 2.19542,0.27872 2.84514,0.006 z m -2.44764,-1.52234 c -1.06423,-0.56904 -1.4656,-1.92465 -0.89599,-3.02616 0.3445,-0.66619 0.89696,-1.01685 1.75428,-1.113482 1.16474,-0.131283 2.01698,0.481481 2.33599,1.679592 0.1553,0.58327 0.13726,0.78197 -0.12479,1.37439 -0.5523,1.24858 -1.88394,1.71957 -3.06949,1.08566 z m 35.56604,4.54819 c -2.24702,-0.54448 -4.54322,-2.32442 -5.60282,-4.34313 -3.04017,-5.791985 1.11704,-12.706968 7.63928,-12.706968 2.37336,0 4.37816,0.842536 6.08,2.555173 1.68219,1.692867 2.55217,3.74634 2.55763,6.036952 0.0133,5.564723 -5.2858,9.763623 -10.67409,8.457973 z m 2.87149,-5.53714 c 1.20521,-0.33472 2.19794,-1.63233 2.19794,-2.872958 0,-0.803896 -0.49702,-1.784643 -1.1967,-2.361376 -1.50328,-1.239132 -3.74616,-0.670803 -4.57787,1.160004 -0.68941,1.517549 -0.0246,3.2161 1.5416,3.93897 0.73323,0.3384 1.19367,0.36903 2.03503,0.13536 z m 30.36497,5.51382 c -3.10097,-0.81812 -5.60807,-3.32841 -6.31364,-6.32167 -0.70948,-3.009919 0.12273,-5.949332 2.31129,-8.163585 3.38334,-3.423046 8.75478,-3.422197 12.1789,0.0019 1.6982,1.698199 2.54345,3.72423 2.54345,6.096552 0,2.360163 -0.82986,4.336283 -2.56,6.096033 -2.0985,2.13442 -5.32225,3.03942 -8.16,2.29075 z m 2.91503,-5.51382 c 1.20586,-0.3349 2.19368,-1.62677 2.20146,-2.879056 0.005,-0.7737 -0.59037,-1.875074 -1.33186,-2.464628 -0.5507,-0.437862 -0.72995,-0.48921 -1.70589,-0.488667 -0.97483,5.42e-4 -1.1557,0.05246 -1.70464,0.489274 -0.74046,0.589217 -1.33539,1.69092 -1.33059,2.464021 0.007,1.201646 0.87031,2.402326 2.02132,2.812716 0.75133,0.26788 1.08184,0.27974 1.8502,0.0663 z m -24.12601,-2.91298 c -0.01,-1.570584 -0.072,-1.974201 -0.48958,-3.167045 -0.60344,-1.723601 -1.39245,-2.915781 -2.77989,-4.200332 -4.95541,-4.587952 -12.89065,-3.011475 -15.8287,3.144655 -0.25955,0.543848 -0.60217,1.643394 -0.76138,2.443437 L 179.28,98.835318 176.4,97.882877 c -2.19041,-0.724388 -2.99493,-1.064464 -3.36,-1.420287 l -0.48,-0.467846 -0.0515,-2.397371 -0.0515,-2.397371 h -1.34048 -1.34049 l -0.048,0.92 -0.048,0.92 h -0.72 -0.72 v -2.96 -2.96 h 0.72 0.72 l 0.048,0.92 0.048,0.92 h 1.35201 1.35202 v -1.440404 -1.440404 l 31.08,0.0404 31.08,0.0404 4,6.488081 c 2.2,3.568444 4.23459,6.864479 4.5213,7.324521 0.36846,0.591204 0.46193,0.859224 0.31878,0.914154 -0.11138,0.0427 -2.57797,0.0587 -5.4813,0.0355 L 232.72,100.88 l 0.0521,-1.199998 c 0.21282,-4.903865 -3.19768,-9.318742 -7.98713,-10.339308 -2.41031,-0.513604 -5.15709,-0.02975 -7.33228,1.291611 -1.0647,0.646774 -2.77691,2.389032 -3.41078,3.470641 -0.236,0.402715 -0.62589,1.300299 -0.86641,1.994632 -0.37208,1.07411 -0.43867,1.530927 -0.4464,3.062424 l -0.009,1.799998 -6.64,-2e-5 -6.64,-2e-5 z M 50.112957,99.400002 C 49.840945,98.090248 49.131633,96.697909 48.224465,95.693 45.258665,92.407654 40.278278,92.077339 36.887146,94.941074 l -0.632854,0.53443 -0.797675,-0.630526 c -3.328182,-2.630777 -7.681208,-2.47934 -10.730698,0.373308 -1.052681,0.984731 -1.974174,2.49283 -2.322411,3.800815 L 22.21738,99.7182 21.734037,99.259101 C 21.468198,99.006596 21.095287,98.512002 20.905347,98.160002 20.570055,97.538636 20.56,97.354621 20.56,91.840002 v -5.68 h 32.96 32.96 l 0.04623,1.4 0.04623,1.4 H 87.926229 89.28 v -0.96 -0.96 H 90 90.72 v 3.04 3.04 H 90 89.28 v -0.96 -0.96 h -1.348207 -1.348207 l -0.05179,3.24 c -0.05128,3.207996 -0.05616,3.247434 -0.494215,3.992624 -0.243332,0.413943 -0.600875,0.863608 -0.79454,0.999256 -0.34518,0.241774 -0.358529,0.226947 -0.677578,-0.752624 C 82.737371,93.066503 75.794635,91.122821 71.48,95.015865 l -0.6,0.541373 -0.659375,-0.595706 c -1.617101,-1.460953 -4.366433,-2.242922 -6.582861,-1.872306 -3.259508,0.545034 -5.77314,2.888176 -6.638738,6.188459 L 56.725648,100.32 h -3.210812 -3.210812 z m 76.032833,0.32 c -0.5749,-3.173163 -3.04604,-5.77926 -6.18075,-6.518317 -2.49352,-0.587884 -5.02825,0.02598 -7.0474,1.706751 l -0.76237,0.6346 -0.74656,-0.657148 c -2.33464,-2.05503 -5.88786,-2.468686 -8.82751,-1.027672 -1.98642,0.973742 -3.672878,3.013866 -4.189644,5.068246 -0.107921,0.429032 -0.271769,0.740476 -0.372177,0.707438 -0.322275,-0.106038 -1.202705,-1.388064 -1.372082,-1.997939 -0.09103,-0.327778 -0.165914,-1.909959 -0.166405,-3.515959 l -8.92e-4,-2.92 h -1.36 -1.36 v 0.96 0.96 h -0.72 -0.72 v -3.04 -3.04 h 0.72 0.72 v 0.96 0.96 h 1.35377 1.353771 l 0.04623,-1.4 0.04623,-1.4 h 32.957829 32.95782 l 0.0356,1.2 c 0.0196,0.66 0.0385,1.292912 0.0422,1.406471 0.005,0.155298 0.33377,0.194953 1.32662,0.16 l 1.32,-0.04647 0.048,-0.92 0.048,-0.92 h 0.71201 0.71202 v 3.04 3.04 h -0.71202 -0.71201 l -0.048,-0.92 -0.048,-0.92 -1.32,-0.04647 c -0.726,-0.02556 -1.32284,0.01044 -1.32632,0.08 -0.003,0.06956 -0.025,1.494471 -0.0479,3.166471 -0.0379,2.775657 -0.0719,3.095651 -0.39008,3.68 -0.38606,0.7089 -0.62252,1.015729 -1.02639,1.331829 -0.24158,0.189083 -0.29042,0.13754 -0.45482,-0.48 -0.50764,-1.906939 -2.10447,-3.964118 -3.88408,-5.003831 -0.97231,-0.568058 -2.78324,-1.048703 -3.93963,-1.045633 -1.8556,0.0049 -3.9346,0.771886 -5.36367,1.978707 l -0.63286,0.53443 -0.79767,-0.630526 c -1.73359,-1.370324 -3.58078,-1.972425 -5.62357,-1.833034 -3.69193,0.251921 -6.73182,2.852914 -7.46601,6.388058 l -0.1911,0.919996 h -3.24073 -3.24074 z M 20.582835,84.689503 c -0.06119,-0.06119 -0.105291,-4.345365 -0.098,-9.520381 l 0.01327,-9.409121 h 33.032216 33.032216 l -0.04127,9.48 -0.04127,9.480001 -32.892953,0.04038 c -18.091123,0.02221 -32.943019,-0.0097 -33.004212,-0.07088 z M 40,74.880001 v -4.48 h -6 -6 v 4.48 4.480001 h 6 6 z m 19.52,0 v -4.48 h -6 -6 v 4.48 4.480001 h 6 6 z m 19.52,0 v -4.48 h -6 -6 v 4.48 4.480001 h 6 6 z m 17.547047,9.813715 C 96.528171,84.63484 96.48,80.350668 96.48,75.173335 v -9.413334 h 32.94288 c 29.33406,0 32.95311,0.02665 33.03625,0.243309 0.0514,0.133819 0.0771,4.39982 0.0571,9.48 l -0.0363,9.236692 -32.89295,0.04038 c -18.09113,0.02221 -32.941127,-0.0078 -33.000003,-0.06667 z M 116,74.880001 v -4.48 h -6 -6 v 4.48 4.480001 h 6 6 z m 19.52,0 v -4.48 h -6 -6 v 4.48 4.480001 h 6 6 z m 19.52,0 v -4.48 h -6 -6 v 4.48 4.480001 h 6 6 z m 17.44,6.141573 v -3.77922 l 0.62118,-0.621176 c 0.5422,-0.542206 0.7151,-0.621177 1.36,-0.621177 H 175.2 v -9.0308 -9.030801 l -0.68,-0.0492 -0.68,-0.0492 v -2.16 -2.16 l 14.52,-0.04085 14.52,-0.04085 v 2.080846 c 0,1.144465 0.018,2.134846 0.04,2.200846 0.022,0.066 -0.266,0.14214 -0.64,0.1692 l -0.68,0.0492 v 6.230801 6.2308 h 5.44 5.44 l -10e-4,-0.44 c -6.7e-4,-0.242 -0.25212,-2.42 -0.5588,-4.84 -0.30668,-2.42 -0.55814,-4.418 -0.5588,-4.44 -6.6e-4,-0.022 -0.3252,-0.04 -0.7212,-0.04 h -0.72 l 6e-4,-1.32 c 7e-4,-1.542952 0.276,-2.151094 1.16469,-2.572806 0.49727,-0.235969 1.32278,-0.267194 7.06403,-0.267194 7.03091,0 7.13634,0.01159 7.93068,0.87206 0.3521,0.381418 0.40665,0.603077 0.45557,1.851218 l 0.0556,1.417917 -0.77557,0.0494 -0.77557,0.0494 -0.49968,4.130419 c -0.27483,2.271731 -0.54345,4.449731 -0.59694,4.84 l -0.0973,0.709581 2.67694,0.0028 c 4.36492,0.0045 6.28013,0.635833 8.42758,2.777957 1.94877,1.943944 2.74587,4.005429 2.6058,6.739265 -0.0821,1.601814 -0.41231,2.746011 -1.14782,3.976868 l -0.49187,0.823132 -31.71838,0.0404 -31.71837,0.0404 z m 24.92133,-14.101573 0.0413,-9 h -9.0413 -9.04133 v 9.041332 9.041333 l 9,-0.04133 9,-0.04133 z M 17.6,61.943663 c 0,-2.204198 0.02631,-2.415722 0.363189,-2.920001 0.683701,-1.023438 1.047928,-1.103134 5.042815,-1.103412 l 3.566004,-2.49e-4 -0.046,-1.48 c -0.04221,-1.357999 -0.07238,-1.48 -0.366004,-1.48 -0.268243,0 -0.327888,-0.122922 -0.368767,-0.76 l -0.04877,-0.76 H 31.751233 37.76 v 0.708872 c 0,0.613311 -0.04853,0.715764 -0.36,0.76 -0.34288,0.0487 -0.36,0.11961 -0.36,1.491128 v 1.44 l 16.526014,0.04075 16.526014,0.04075 -0.04601,-1.480749 C 70.002584,55.043153 69.979784,54.95713 69.64,54.908873 c -0.31147,-0.04424 -0.36,-0.146689 -0.36,-0.76 v -0.708872 h 6 6 v 0.708872 c 0,0.613311 -0.04853,0.715764 -0.36,0.76 -0.34288,0.0487 -0.36,0.11961 -0.36,1.491128 v 1.44 l 3.76,0.08 c 3.569731,0.07595 3.785392,0.09811 4.261801,0.437937 C 89.396612,58.939145 89.6,59.699263 89.6,62.163239 v 2.156762 h -36 -36 z m 75.843513,0.176338 c 0.0029,-1.814405 0.05678,-2.317324 0.307427,-2.869389 0.526688,-1.160068 0.825413,-1.238792 5.04906,-1.330611 l 3.68,-0.08 v -1.44 c 0,-1.371518 -0.0171,-1.442431 -0.36,-1.491128 -0.31147,-0.04424 -0.36,-0.146689 -0.36,-0.76 v -0.708872 h 6 6 v 0.72 c 0,0.396 -0.072,0.729 -0.16,0.74 -0.088,0.011 -0.25,0.029 -0.36,0.04 -0.14045,0.01404 -0.2137,0.460928 -0.24601,1.500748 l -0.046,1.480749 16.52602,-0.04075 L 146,57.840001 v -1.44 c 0,-1.390431 -0.0124,-1.439563 -0.36,-1.427296 -0.32539,0.01148 -0.36,-0.06158 -0.36,-0.76 v -0.772704 h 6.00877 6.00876 l -0.0488,0.76 c -0.0409,0.637078 -0.10053,0.76 -0.36877,0.76 -0.29362,0 -0.32379,0.122001 -0.366,1.48 l -0.046,1.48 3.56601,2.49e-4 c 3.99488,2.78e-4 4.35911,0.07997 5.04281,1.103412 0.33688,0.504279 0.36319,0.715803 0.36319,2.920001 v 2.376338 h -36 -36 z">
    </path>
  </g>
</svg>